<?xml version="1.0" standalone="no"?>
<!DOCTYPE svg PUBLIC "-//W3C//DTD SVG 20010904//EN"
 "http://www.w3.org/TR/2001/REC-SVG-20010904/DTD/svg10.dtd">
<svg version="1.0" xmlns="http://www.w3.org/2000/svg"
 width="7000.000000pt" height="7000.000000pt" viewBox="0 0 7000.000000 7000.000000"
 preserveAspectRatio="xMidYMid meet">

<g transform="translate(0.000000,7000.000000) scale(0.100000,-0.100000)"
fill="#000000" stroke="none">
<path d="M6475 69963 c2 -16 9 -68 15 -118 26 -213 102 -540 180 -775 431
-1292 1429 -2287 2728 -2720 707 -236 1439 -288 2177 -154 418 75 812 208
1210 409 445 224 803 481 1145 824 588 589 992 1314 1185 2127 25 106 75 381
75 415 0 19 -53 19 -4360 19 l-4359 0 4 -27z"/>
<path d="M25292 69215 c-84 -71 -53 -199 52 -219 71 -13 146 47 146 117 0 104
-122 166 -198 102z"/>
<path d="M41182 68477 c-88 -95 -203 -217 -255 -272 l-95 -100 -22 20 c-13 11
-129 130 -257 265 -129 135 -238 246 -242 247 -3 1 -60 -49 -126 -111 l-119
-114 33 -38 c19 -22 136 -145 262 -275 l228 -236 -147 -144 c-81 -80 -198
-193 -259 -251 l-113 -106 112 -119 c62 -65 116 -119 120 -121 8 -4 120 101
361 338 87 85 161 156 165 158 4 1 73 -60 153 -135 80 -76 200 -189 266 -250
l120 -113 116 126 115 126 -132 121 c-72 67 -174 163 -226 213 -52 51 -110
104 -127 119 -18 15 -33 31 -33 37 0 6 65 79 144 162 195 206 361 387 361 395
0 3 -55 56 -121 118 l-122 112 -160 -172z"/>
<path d="M58194 68491 c-34 -21 -59 -66 -69 -127 -5 -36 6 -303 20 -449 3 -27
12 -126 20 -220 72 -789 246 -1666 485 -2453 105 -345 157 -458 260 -563 99
-101 227 -158 475 -208 55 -11 265 -54 467 -95 271 -56 380 -82 419 -102 l53
-26 23 28 c90 112 90 351 1 529 -11 22 -40 68 -64 103 -43 62 -44 64 -27 86
10 12 114 124 232 249 211 223 215 227 248 221 27 -5 33 -3 33 11 0 13 5 15
18 10 34 -15 245 -53 325 -60 283 -22 551 154 560 367 l2 52 -45 9 c-93 17
-324 -14 -447 -61 -29 -11 -53 -19 -53 -18 0 2 22 39 49 84 114 191 158 357
116 446 -32 68 -105 85 -171 40 -47 -32 -48 -33 -136 -164 -101 -151 -193
-352 -243 -531 -15 -53 -32 -73 -281 -338 -146 -154 -267 -281 -271 -281 -3 0
-88 80 -190 178 -253 242 -338 350 -444 563 -158 317 -213 688 -152 1015 9 49
17 143 17 209 1 116 0 122 -31 185 -51 104 -616 813 -956 1201 -106 121 -174
152 -243 110z m3048 -2229 c37 -94 -102 -389 -257 -545 -70 -69 -196 -187
-201 -187 -1 0 1 12 5 28 5 15 19 62 31 106 57 200 174 430 298 584 54 68 100
73 124 14z m362 -499 c-19 -82 -107 -177 -207 -224 -73 -34 -145 -49 -234 -49
-75 0 -273 29 -273 40 0 13 112 100 174 135 137 76 310 123 459 124 l87 1 -6
-27z"/>
<path d="M29215 67984 c-129 -27 -210 -69 -290 -149 -63 -63 -116 -155 -134
-235 -15 -63 -13 -196 3 -255 41 -154 168 -296 311 -346 252 -88 521 15 636
243 153 303 -18 663 -349 734 -64 13 -135 16 -177 8z"/>
<path d="M33604 67229 c-97 -28 -114 -178 -24 -224 72 -37 159 -3 179 71 17
63 -12 124 -72 149 -40 17 -40 17 -83 4z"/>
<path d="M49050 66360 c0 -341 -1 -620 -3 -620 -1 0 -141 138 -310 308 l-307
307 -87 -88 -88 -87 303 -303 c166 -166 302 -305 302 -310 0 -4 -277 -7 -615
-7 l-616 0 3 -120 3 -121 613 1 c336 0 612 -3 612 -7 0 -4 -136 -144 -302
-310 l-303 -303 88 -87 87 -88 303 303 c166 166 305 302 310 302 4 0 7 -277 7
-615 l0 -615 120 0 120 0 0 615 c0 338 3 615 7 615 5 0 144 -136 310 -302
l303 -303 87 88 88 87 -306 305 c-168 168 -303 308 -300 310 2 3 279 5 615 5
l611 -1 3 121 3 120 -623 0 -623 0 310 310 310 310 -88 87 -87 88 -310 -310
-310 -310 0 623 0 622 -120 0 -120 0 0 -620z"/>
<path d="M23142 66673 c-92 -45 -82 -188 15 -222 85 -30 163 24 163 112 0 52
-22 91 -64 111 -43 20 -72 20 -114 -1z"/>
<path d="M21374 66016 c-68 -30 -94 -109 -59 -176 40 -78 174 -77 216 1 31 58
2 146 -57 174 -39 18 -59 18 -100 1z"/>
<path d="M2320 65433 c8 -3 121 -44 250 -90 602 -217 1654 -663 1765 -747 18
-14 39 -42 46 -61 7 -19 18 -35 24 -35 7 0 123 38 260 85 136 47 260 85 275
85 53 0 82 -77 42 -113 -10 -9 -149 -61 -308 -116 l-289 -98 -17 -114 c-26
-177 -38 -161 100 -128 64 15 159 33 211 40 l95 12 23 -27 c13 -15 23 -37 23
-50 0 -43 -36 -61 -161 -80 -107 -15 -311 -65 -326 -79 -3 -4 -20 -116 -37
-251 -17 -134 -34 -247 -37 -250 -3 -3 -66 5 -140 19 -156 29 -168 30 -183 11
-524 -658 -879 -1485 -1186 -2766 -218 -908 -278 -1258 -310 -1825 -6 -104
-13 -212 -15 -240 -2 -27 -8 -574 -14 -1215 -11 -1174 -19 -1517 -46 -1865
-29 -374 -62 -605 -134 -951 -54 -263 -65 -348 -65 -509 1 -162 15 -255 50
-307 71 -109 563 -478 1219 -913 948 -628 1946 -1221 2645 -1571 408 -204 454
-222 1170 -449 184 -59 481 -153 660 -210 179 -57 476 -152 660 -210 184 -59
484 -154 665 -211 182 -58 345 -110 363 -115 17 -6 32 -13 32 -16 0 -26 -665
-729 -1145 -1210 -491 -493 -472 -479 -620 -477 -102 1 -173 22 -362 105 -167
74 -243 91 -398 92 -148 1 -268 -19 -475 -79 -321 -93 -368 -101 -471 -80
-180 38 -371 160 -904 576 -378 295 -580 443 -827 608 -854 569 -1640 864
-2523 947 -158 15 -654 17 -815 4 -259 -21 -517 -60 -781 -119 -107 -24 -207
-40 -245 -40 l-64 0 0 -1498 0 -1499 128 -55 c70 -31 294 -129 497 -218 1843
-809 3825 -1620 4745 -1943 241 -85 721 -238 1055 -336 1127 -330 1855 -382
2505 -175 191 60 728 312 1061 496 622 346 1182 739 1714 1203 218 191 659
632 850 850 148 170 326 388 443 542 59 77 71 87 234 191 745 470 1663 929
2853 1427 601 252 1376 550 1870 721 44 15 82 29 84 30 2 2 -35 113 -82 246
-151 430 -236 714 -342 1138 -167 669 -282 1384 -330 2040 -8 118 -17 240 -20
270 -3 30 -8 216 -11 412 -7 337 -6 359 11 378 11 12 31 20 49 20 72 -1 75
-15 77 -321 1 -338 20 -667 60 -1059 116 -1151 408 -2315 851 -3395 75 -181
66 -168 299 -470 127 -165 234 -330 309 -478 l64 -124 95 39 c241 98 585 204
1066 329 149 39 383 100 520 135 737 192 1130 327 1495 516 74 38 144 76 154
83 18 14 12 31 -154 392 -296 646 -274 603 -309 603 -21 0 -35 7 -45 23 -8 12
-38 108 -67 212 -31 115 -67 222 -91 270 -25 51 -31 71 -18 56 11 -13 22 -22
24 -20 2 2 -13 72 -34 154 -142 564 -271 1190 -380 1842 -56 338 -58 355 -31
382 11 11 32 21 46 21 33 0 75 -42 75 -74 0 -42 97 -607 161 -939 86 -448 207
-990 220 -985 12 5 115 131 195 240 338 457 580 1052 650 1603 9 72 21 142 26
156 18 50 82 58 117 15 17 -20 10 -112 -25 -316 -43 -250 -128 -545 -229 -790
-46 -112 -179 -370 -249 -485 -138 -225 -392 -556 -437 -570 -13 -4 -18 -13
-15 -23 3 -9 30 -118 61 -242 32 -124 63 -234 70 -245 46 -72 345 -360 555
-534 117 -98 315 -251 324 -251 8 0 613 643 846 900 448 493 813 912 1241
1427 l282 337 -44 39 c-123 108 -137 118 -141 102 -2 -9 -170 -183 -373 -388
-585 -587 -1046 -1096 -1520 -1676 -97 -120 -109 -131 -139 -131 -46 0 -71 30
-67 82 3 46 662 814 1114 1298 303 324 873 890 897 890 30 0 25 13 -27 62
-309 291 -664 734 -915 1143 -126 205 -305 544 -384 728 -28 66 -32 70 -122
128 -50 32 -94 59 -97 59 -3 0 -40 -22 -83 -48 -218 -137 -947 -549 -1149
-651 -68 -33 -133 -61 -146 -61 -13 0 -47 12 -76 26 -40 21 -85 63 -199 188
-421 461 -637 772 -734 1059 -57 168 -49 357 18 437 51 60 294 209 874 534
349 196 641 378 748 463 l43 35 -68 33 c-85 41 -140 89 -192 165 -148 222
-123 485 65 673 37 37 73 67 79 67 19 0 236 -46 420 -89 94 -21 193 -42 220
-46 121 -15 282 43 377 136 29 29 79 72 111 96 128 96 248 236 327 382 25 46
79 124 120 174 l75 92 90 12 c159 23 284 75 408 170 71 55 154 153 197 234 17
32 35 59 40 59 5 0 46 -9 92 -20 178 -41 331 -35 431 18 29 15 55 28 60 30 4
2 7 -14 7 -36 0 -22 9 -69 20 -104 64 -206 246 -333 471 -327 71 2 80 0 109
-25 l31 -26 -22 -57 c-19 -49 -23 -76 -23 -168 1 -122 19 -189 74 -276 118
-183 378 -275 624 -219 34 7 40 5 97 -43 37 -31 58 -56 54 -65 -10 -26 16
-147 45 -209 71 -153 226 -232 399 -203 80 13 172 54 223 99 31 27 43 31 96
31 258 0 494 124 584 308 31 62 33 73 32 167 0 115 -19 175 -85 273 -81 122
-233 245 -361 293 l-62 23 78 13 c87 15 157 41 232 89 144 90 158 214 38 343
-95 103 -294 215 -554 311 -63 24 -116 44 -118 45 -2 2 11 18 28 36 69 75 108
206 90 302 -14 72 -61 165 -108 210 l-39 38 29 31 c16 18 41 55 56 82 22 43
26 64 27 132 0 71 -3 85 -27 122 -63 95 -195 131 -505 139 -184 5 -336 -4
-422 -24 l-24 -6 25 34 c118 157 91 387 -65 555 -106 114 -230 159 -417 151
-169 -7 -297 -49 -470 -153 -49 -30 -91 -54 -94 -54 -2 0 3 19 11 43 10 29 14
68 11 124 -6 114 -45 192 -147 293 -125 124 -237 170 -414 170 -200 0 -392
-66 -688 -236 -42 -24 -78 -44 -81 -44 -3 0 -8 15 -12 32 -23 116 -177 209
-320 193 -127 -14 -248 -72 -402 -191 -149 -115 -301 -299 -385 -466 -24 -47
-34 -58 -48 -53 -114 36 -330 45 -474 20 -421 -73 -773 -351 -923 -730 l-32
-80 -110 -56 c-311 -159 -491 -339 -568 -569 -27 -78 -27 -282 0 -360 45 -133
136 -249 230 -294 20 -9 36 -20 36 -24 0 -4 -15 -19 -34 -34 -18 -15 -55 -55
-81 -90 -195 -260 -216 -582 -54 -855 47 -78 157 -193 234 -243 36 -23 65 -45
65 -47 0 -3 -20 -28 -45 -55 -94 -105 -152 -247 -163 -402 -5 -68 -11 -90 -22
-91 -8 -1 -114 -5 -235 -9 -1898 -57 -3613 -321 -5040 -776 -625 -199 -1033
-357 -2235 -867 -1023 -434 -1710 -660 -2450 -807 -124 -24 -261 -50 -305 -57
-44 -6 -83 -15 -88 -18 -4 -4 15 -78 43 -165 27 -86 50 -161 50 -165 0 -4 -26
0 -57 10 -32 10 -177 54 -323 99 -146 45 -533 174 -860 287 -1573 542 -2013
682 -2595 827 -570 142 -1038 205 -1331 178 -65 -6 -121 -8 -124 -5 -3 2 -7
47 -8 98 -7 181 41 443 228 1255 232 1005 302 1424 302 1815 1 190 -14 306
-52 408 -28 76 -57 207 -72 327 -18 144 -18 924 0 1115 28 295 68 536 113 673
12 35 54 128 93 206 130 256 182 457 173 671 -3 96 -10 136 -31 200 -62 181
-181 312 -374 409 -29 15 -51 30 -48 34 3 5 32 102 65 218 131 455 218 900
266 1356 18 180 19 218 3 218 -7 0 -305 43 -663 94 -357 52 -794 116 -970 141
-418 60 -674 97 -1340 194 -302 44 -630 91 -727 105 -175 26 -218 30 -188 19z
m1889 -2512 c46 -17 154 -69 240 -115 274 -149 446 -218 705 -282 222 -54 399
-76 647 -79 119 -2 226 -6 237 -9 28 -9 47 -58 33 -85 -26 -47 -43 -51 -251
-51 -213 0 -376 16 -570 54 -273 55 -570 160 -795 282 -352 190 -442 215 -539
149 -49 -33 -89 -32 -115 1 -12 15 -21 34 -21 44 0 39 68 94 150 121 53 18
191 3 279 -30z m1305 -2743 c21 -19 28 -43 45 -143 157 -917 47 -1848 -320
-2711 -46 -110 -65 -144 -85 -153 -35 -16 -47 -14 -78 10 -32 25 -34 64 -6
120 39 75 138 333 188 489 90 281 148 544 193 885 21 151 23 212 23 540 0 386
-6 481 -54 768 -26 156 -26 171 6 196 34 27 57 26 88 -1z m-301 -4515 c39 -36
21 -76 -107 -228 -28 -33 -172 -207 -320 -388 -148 -180 -273 -327 -278 -327
-5 0 -36 14 -69 31 l-61 30 19 22 c11 12 176 212 367 444 190 232 354 427 364
433 21 12 61 4 85 -17z m261 -164 c19 -15 26 -30 26 -54 0 -30 -9 -42 -77 -99
-162 -136 -264 -287 -338 -500 -26 -76 -36 -92 -58 -100 -37 -13 -79 3 -95 36
-11 24 -9 38 18 119 77 230 240 458 423 590 48 34 65 36 101 8z m-1061 -816
l52 -28 -33 -3 c-35 -3 -56 8 -73 40 -13 24 -8 23 54 -9z m7030 -105 c35 -32
142 -312 270 -703 88 -269 134 -421 282 -945 223 -788 325 -1104 525 -1634 65
-173 93 -246 315 -806 175 -441 261 -671 365 -970 111 -321 300 -940 300 -985
0 -26 -25 -51 -61 -60 -50 -12 -65 15 -125 220 -176 609 -330 1044 -674 1910
-406 1021 -512 1337 -830 2465 -153 542 -273 914 -411 1277 -60 157 -68 185
-58 206 11 24 41 45 66 46 7 1 23 -9 36 -21z m10195 -4525 c32 -28 36 -68 10
-97 -19 -20 -101 -47 -483 -156 -452 -129 -1290 -369 -1798 -516 -142 -41
-269 -74 -282 -74 -69 0 -84 114 -18 134 10 3 248 71 528 151 632 181 1767
508 1895 545 116 34 123 34 148 13z m-18118 -393 c534 -131 1065 -381 1482
-696 124 -95 294 -236 453 -378 412 -369 665 -516 958 -559 107 -16 137 -33
137 -77 0 -15 -9 -38 -19 -51 -17 -21 -26 -24 -83 -21 -80 3 -241 42 -344 82
-217 86 -409 221 -782 549 -224 197 -344 295 -482 392 -327 232 -642 391
-1035 524 -132 44 -431 125 -465 125 -44 0 -91 23 -105 50 -16 30 -12 53 14
84 14 16 25 18 81 13 36 -4 121 -20 190 -37z m4260 -1478 c26 -21 41 -105 61
-335 14 -170 7 -549 -11 -589 -17 -36 -60 -54 -92 -37 -41 22 -48 40 -42 104
17 184 8 497 -21 703 -8 65 -10 113 -5 127 17 45 71 58 110 27z m234 -94 c21
-20 33 -61 90 -321 49 -222 63 -304 56 -322 -18 -48 -86 -61 -117 -21 -10 13
-26 56 -36 97 -58 255 -107 492 -107 518 0 20 8 36 26 50 34 27 57 26 88 -1z"/>
<path d="M27652 64346 c-92 -50 -76 -192 25 -224 37 -12 46 -11 86 6 85 38
101 136 32 200 -28 26 -43 32 -77 32 -24 -1 -53 -6 -66 -14z"/>
<path d="M64976 64312 c-2 -4 -14 -46 -26 -92 -37 -147 -114 -291 -208 -392
-30 -33 -43 -54 -40 -70 16 -115 232 162 301 387 36 117 39 142 21 160 -17 16
-40 20 -48 7z"/>
<path d="M62192 64128 c-7 -7 -12 -21 -12 -32 0 -12 128 -147 356 -375 352
-351 453 -450 792 -768 517 -486 1377 -1233 1419 -1233 12 0 27 9 33 20 9 17
-1 29 -82 97 -836 706 -1371 1195 -2096 1920 -211 211 -387 383 -391 383 -4 0
-12 -5 -19 -12z"/>
<path d="M47153 62366 c-97 -44 -86 -196 17 -227 50 -15 86 -5 127 36 94 94
-21 247 -144 191z"/>
<path d="M58595 62228 c-247 -175 -516 -407 -1145 -987 -945 -874 -1453 -1263
-1921 -1473 -371 -165 -633 -199 -1644 -213 -618 -8 -875 -23 -1165 -66 -832
-124 -1623 -522 -2215 -1114 -197 -197 -351 -391 -630 -795 -342 -495 -522
-708 -752 -891 -88 -70 -85 -70 -208 -7 -225 113 -378 289 -430 493 -19 72
-21 267 -5 405 16 138 13 330 -6 403 -78 305 -360 463 -774 436 -176 -12 -362
-61 -523 -138 -100 -48 -285 -169 -416 -272 -52 -41 -104 -82 -117 -92 -22
-17 -30 -17 -156 -2 -522 60 -1062 -64 -1498 -346 -231 -149 -404 -313 -740
-704 -363 -422 -556 -597 -788 -718 -205 -106 -355 -140 -753 -172 -239 -18
-346 -31 -469 -56 -311 -63 -602 -217 -858 -454 l-73 -68 -147 2 c-81 1 -271
6 -422 12 -424 15 -1015 19 -1115 8 -162 -17 -318 -49 -442 -91 -68 -22 -123
-43 -123 -46 0 -3 9 -15 19 -26 45 -48 256 -735 372 -1206 149 -607 250 -1202
311 -1828 l22 -233 41 6 c51 7 756 65 790 65 18 0 25 -5 25 -19 0 -32 56 -326
90 -471 62 -269 121 -440 120 -347 0 12 23 204 52 427 l52 405 50 60 c156 188
288 450 421 836 l46 136 67 -70 c304 -316 556 -483 873 -577 169 -50 389 -71
549 -51 30 3 86 1 125 -5 196 -33 474 -39 621 -13 36 6 68 9 70 6 3 -3 8 -96
11 -207 6 -199 6 -201 27 -195 109 35 136 39 191 28 172 -37 323 -179 377
-356 37 -123 11 -271 -73 -414 -68 -115 -280 -303 -407 -362 -60 -27 -95 -53
-81 -61 7 -5 12 -44 14 -106 2 -77 9 -118 31 -183 134 -401 588 -599 1077
-471 40 11 75 16 78 12 4 -4 14 -69 24 -146 33 -262 11 -519 -59 -672 -29 -64
-97 -139 -148 -165 l-37 -19 -366 183 c-201 100 -365 181 -365 180 0 -2 73
-117 163 -256 90 -138 221 -343 292 -454 72 -112 132 -203 135 -203 3 0 34 55
69 123 172 327 392 655 623 925 l78 91 87 -6 c49 -3 90 -7 92 -9 2 -2 -17 -25
-42 -51 -277 -296 -621 -810 -777 -1160 l-33 -73 114 -177 c579 -908 718
-1118 729 -1107 4 5 42 54 83 109 469 626 1189 1152 2104 1538 294 124 822
312 962 342 33 7 33 7 27 54 -17 132 -18 161 -9 161 29 0 212 -75 291 -119
391 -217 853 -341 1327 -358 558 -19 1133 134 1601 427 l62 39 123 -6 c213
-10 507 20 734 73 206 49 458 155 616 260 334 221 584 607 671 1035 32 161 30
387 -5 539 -15 63 -27 118 -27 123 0 15 216 148 344 211 232 114 480 190 761
235 210 33 314 41 598 48 l269 6 97 121 c194 241 339 440 721 991 532 766 786
1089 1124 1433 257 261 439 415 696 587 394 263 809 457 1415 662 202 68 441
140 1045 317 499 146 809 250 1130 380 166 68 520 234 520 245 0 3 -35 47 -76
96 -164 194 -407 503 -617 783 -210 280 -220 292 -241 279 -55 -36 -195 -112
-283 -153 -378 -177 -782 -297 -1568 -463 -865 -183 -1199 -289 -1730 -551
-610 -301 -1156 -691 -1850 -1319 -237 -215 -324 -299 -1065 -1022 -724 -707
-1019 -977 -1413 -1296 -282 -229 -667 -503 -884 -628 l-33 -19 -50 49 c-27
27 -50 52 -50 55 0 3 72 49 159 104 550 343 1081 782 1891 1567 141 136 307
287 370 335 153 119 352 313 466 455 156 195 685 679 1124 1030 450 359 921
662 1337 860 478 228 888 353 1711 525 882 183 1261 304 1690 537 61 34 112
64 112 67 0 3 -59 85 -131 184 -71 98 -128 180 -127 181 2 2 291 85 643 185
1213 345 1479 421 1482 423 1 2 -62 71 -140 154 -284 302 -590 574 -976 867
-130 99 -156 114 -169 104 -9 -7 -302 -258 -651 -557 -444 -380 -635 -549
-634 -562 6 -42 -485 -394 -817 -584 -515 -296 -1075 -535 -1755 -749 -303
-94 -473 -143 -1092 -312 -620 -168 -1136 -317 -1248 -360 -13 -5 -92 112 -83
122 18 17 596 187 1208 354 1059 289 1489 424 1960 615 649 264 1246 610 1702
987 l47 39 -58 82 c-165 233 -575 901 -938 1530 -2 4 -40 -43 -83 -103 -561
-783 -1408 -1351 -2645 -1770 -396 -135 -648 -208 -1445 -420 -555 -148 -920
-251 -1188 -336 l-202 -64 -116 20 c-64 11 -127 20 -140 20 -30 0 -31 16 -1
23 12 3 90 28 172 57 324 111 788 246 1355 395 1223 321 1821 520 2400 797
520 249 925 532 1295 902 192 192 279 293 412 480 109 152 106 128 28 253 -37
59 -119 184 -182 277 -92 136 -111 172 -101 181 7 7 75 49 151 95 76 45 137
83 135 85 -2 1 -160 82 -353 180 -192 98 -356 182 -363 188 -29 23 -19 -3 18
-45 22 -26 40 -49 40 -52 0 -8 -214 -302 -338 -466 -305 -401 -555 -692 -856
-999 -964 -980 -1871 -1444 -3141 -1606 -178 -22 -472 -50 -785 -75 -980 -76
-1311 -118 -1715 -222 -791 -202 -1270 -528 -1795 -1223 -54 -71 -108 -136
-120 -143 -97 -59 -252 -144 -256 -140 -7 7 222 321 353 486 350 437 657 699
1051 896 529 265 1129 392 2222 471 118 9 240 18 270 21 30 2 162 13 293 24
889 75 1445 211 2032 500 288 142 495 270 774 480 603 454 1163 1059 1813
1961 l105 146 -105 114 c-135 147 -340 355 -372 379 l-26 18 -99 -70z m-12095
-4384 l45 -5 -540 -543 c-297 -299 -589 -585 -649 -636 -275 -234 -533 -399
-788 -504 -289 -120 -578 -189 -1173 -280 -421 -65 -468 -73 -627 -105 -390
-79 -672 -179 -937 -331 l-88 -50 -162 0 c-88 0 -161 3 -160 8 1 13 144 130
239 195 296 202 537 272 1070 312 438 33 654 94 896 253 195 128 358 286 673
652 238 275 470 509 614 616 306 230 688 378 1092 424 80 9 411 5 495 -6z
m-6917 -2578 c22 -17 56 -105 142 -361 260 -778 436 -1611 515 -2440 28 -290
27 -318 -7 -345 -31 -24 -68 -20 -94 10 -16 18 -21 51 -34 215 -73 893 -279
1845 -589 2720 -25 71 -46 139 -46 151 0 27 44 64 74 64 11 0 29 -7 39 -14z
m2137 -2180 c249 -257 588 -473 933 -591 59 -21 106 -40 104 -42 -8 -7 -179
17 -264 37 -184 43 -400 149 -583 286 -102 75 -299 259 -372 347 l-41 48 19
61 18 61 45 -54 c25 -30 88 -98 141 -153z m8734 -3472 c562 -184 929 -276
1289 -324 82 -11 157 -20 166 -20 22 -1 -41 -40 -169 -104 -718 -364 -1563
-401 -2325 -101 -130 51 -223 93 -229 104 -3 5 27 15 67 24 40 9 161 37 270
61 161 36 205 50 235 73 105 79 275 229 337 295 39 42 76 76 84 77 7 0 131
-38 275 -85z"/>
<path d="M68806 62051 l-148 -148 28 -28 c94 -89 186 -140 320 -177 72 -19
101 -21 319 -20 133 1 257 -3 277 -9 57 -15 96 -53 113 -112 11 -38 15 -102
15 -256 0 -328 26 -470 110 -600 39 -60 134 -161 152 -161 12 0 10 1357 -2
1380 -15 29 -131 108 -197 134 -102 42 -164 49 -433 50 l-255 1 -50 26 c-27
15 -59 36 -69 48 -11 12 -22 21 -25 21 -4 0 -73 -67 -155 -149z"/>
<path d="M60977 62103 c-14 -13 -6 -42 42 -164 299 -759 785 -1416 1430 -1933
91 -72 126 -82 126 -35 0 20 -20 42 -103 108 -524 422 -951 958 -1247 1566
-59 121 -158 357 -189 448 -5 17 -46 24 -59 10z"/>
<path d="M19565 61884 c-52 -19 -112 -78 -138 -134 -24 -54 -26 -140 -4 -191
37 -88 141 -159 232 -159 90 0 196 71 231 156 20 48 17 150 -5 199 -23 51 -98
118 -149 133 -52 16 -118 14 -167 -4z"/>
<path d="M36547 61490 c-14 -74 -65 -337 -113 -585 -48 -247 -88 -452 -90
-454 -3 -3 -262 -58 -639 -134 l-109 -23 214 -59 c118 -32 273 -75 344 -95
l130 -36 26 -114 c15 -63 39 -167 53 -230 105 -461 149 -651 173 -760 15 -69
30 -128 34 -132 3 -5 21 76 39 180 18 103 46 264 62 357 17 94 52 289 77 435
l47 264 344 93 c189 51 345 94 347 96 2 2 -144 34 -324 71 -353 73 -402 84
-402 92 0 2 -16 102 -35 222 -18 119 -59 377 -90 572 -31 195 -57 359 -59 365
-1 5 -14 -51 -29 -125z"/>
<path d="M9920 60917 c0 -2 -18 -97 -40 -211 l-40 -208 53 -58 c39 -42 76
-102 137 -221 45 -90 98 -187 116 -215 109 -164 288 -264 473 -264 140 1 271
57 496 216 319 226 346 220 571 -116 224 -335 382 -450 619 -450 170 0 270 41
501 206 192 138 233 157 324 152 65 -3 69 -2 75 19 16 66 74 387 70 391 -9 9
-93 21 -153 22 -166 1 -333 -67 -552 -225 -137 -100 -217 -145 -258 -145 -35
0 -95 34 -134 78 -19 21 -86 115 -149 208 -141 210 -246 321 -359 377 -246
122 -446 83 -780 -152 -175 -124 -226 -151 -281 -151 -63 0 -100 46 -208 257
-50 98 -114 209 -142 246 -58 76 -145 152 -229 196 -55 29 -110 53 -110 48z"/>
<path d="M64373 58904 c-11 -30 13 -48 112 -81 211 -72 495 -110 725 -99 160
8 207 27 166 68 -10 11 -35 12 -127 5 -220 -17 -515 20 -740 92 -110 35 -127
37 -136 15z"/>
<path d="M24550 58304 c-114 -20 -195 -56 -252 -112 -32 -30 -38 -43 -38 -78
0 -55 31 -92 83 -101 32 -5 45 -1 90 30 70 48 101 59 173 59 89 0 145 -28 225
-112 50 -53 72 -70 93 -70 35 0 82 25 96 49 17 33 11 89 -14 129 -31 49 -113
125 -162 150 -79 40 -225 68 -294 56z"/>
<path d="M67056 58237 c-84 -110 -117 -296 -80 -456 18 -81 41 -109 74 -91 16
9 20 17 16 33 -34 118 -38 147 -33 227 6 94 31 172 77 242 33 50 31 78 -6 78
-14 0 -32 -12 -48 -33z"/>
<path d="M22562 58178 c-19 -19 -16 -26 38 -104 l50 -73 -47 -21 c-123 -54
-170 -105 -123 -130 16 -9 26 -7 48 8 40 28 129 72 146 72 18 0 44 -48 96
-175 27 -66 42 -91 57 -93 54 -8 46 43 -31 212 -20 44 -35 81 -33 82 2 2 21 7
42 12 49 10 67 35 42 59 -15 15 -23 16 -69 6 -46 -10 -55 -10 -66 5 -6 9 -34
46 -60 82 -48 67 -68 80 -90 58z"/>
<path d="M26181 57740 c-57 -12 -123 -45 -161 -80 -42 -39 -43 -99 -1 -141 37
-37 79 -38 143 -4 34 18 63 25 103 25 88 0 148 -39 197 -129 10 -18 33 -38 53
-47 30 -12 39 -12 69 0 19 8 42 26 52 40 53 82 -71 258 -222 315 -61 23 -173
33 -233 21z"/>
<path d="M25575 57553 c-54 -142 -157 -380 -237 -545 -51 -104 -88 -193 -85
-202 3 -8 30 -27 59 -42 29 -15 71 -39 93 -54 53 -36 145 -123 145 -137 0 -12
-120 -72 -191 -96 -69 -23 -158 -45 -219 -52 -62 -8 -80 -19 -80 -47 0 -30 27
-33 139 -14 169 29 399 124 437 181 12 18 9 26 -29 74 -50 63 -137 136 -216
182 l-57 34 78 162 c77 161 194 431 228 528 21 61 17 75 -19 75 -24 0 -31 -7
-46 -47z"/>
<path d="M24400 57499 c-60 -25 -100 -85 -100 -149 0 -92 65 -160 153 -160 68
0 113 24 144 77 60 103 -6 231 -124 239 -26 2 -59 -1 -73 -7z"/>
<path d="M25809 56937 c-48 -31 -83 -105 -74 -156 9 -52 41 -99 85 -123 45
-24 129 -20 168 8 32 24 72 98 72 134 0 40 -42 113 -79 137 -47 31 -125 31
-172 0z"/>
<path d="M24271 56637 c-23 -29 35 -242 94 -343 56 -96 161 -177 248 -191 29
-4 37 -2 47 16 15 29 1 47 -44 55 -77 15 -170 105 -217 211 -11 25 -33 94 -48
153 -22 90 -30 107 -47 110 -11 2 -26 -4 -33 -11z"/>
<path d="M62905 56362 c-406 -215 -873 -386 -1750 -642 -654 -191 -978 -295
-1260 -403 -1094 -420 -1683 -902 -2512 -2058 -50 -69 -200 -283 -333 -475
-270 -387 -502 -709 -639 -884 l-90 -115 117 -6 c284 -16 972 -21 1162 -10
196 12 392 33 485 52 l50 10 112 167 c630 946 1314 1516 2142 1788 312 102
599 162 1321 274 851 132 1221 232 1635 443 279 143 527 327 778 579 l159 158
59 -36 c32 -20 59 -39 59 -41 0 -13 -190 -209 -290 -300 -345 -314 -709 -530
-1144 -679 -324 -111 -610 -172 -1306 -279 -893 -138 -1275 -239 -1690 -451
-498 -253 -955 -657 -1374 -1214 -118 -157 -260 -360 -255 -365 6 -5 261 77
355 113 126 50 425 201 579 292 154 91 234 142 525 328 577 371 860 516 1225
631 117 36 375 110 915 261 1409 394 2123 646 2768 976 101 52 108 54 184 54
45 0 93 6 113 14 38 16 90 82 100 126 5 22 21 38 71 67 l65 38 -47 15 c-26 9
-49 21 -51 27 -2 5 4 68 13 139 25 200 30 584 10 791 -15 152 -51 412 -60 420
-1 2 -108 -44 -237 -101 -129 -57 -394 -174 -589 -261 -195 -86 -379 -167
-409 -181 -29 -13 -58 -24 -64 -24 -28 0 -418 370 -639 607 -99 106 -183 193
-187 193 -3 0 -38 -17 -76 -38z"/>
<path d="M31808 53797 l-97 -102 -96 98 c-53 53 -100 97 -104 97 -4 0 -24 -18
-45 -39 l-38 -39 20 -29 c11 -15 55 -62 96 -103 l76 -75 -97 -97 -97 -98 44
-45 44 -45 98 97 98 97 42 -40 c87 -84 153 -144 158 -144 3 0 25 20 48 43 l43
44 -100 92 -101 93 95 101 c52 55 95 103 95 107 0 3 -19 25 -42 48 l-43 41
-97 -102z"/>
<path d="M41630 52021 c-53 -17 -217 -96 -310 -149 -66 -38 -269 -177 -310
-212 -34 -29 -33 -29 40 9 41 22 116 54 165 71 88 31 468 130 499 130 8 0 27
10 41 23 21 18 26 31 27 71 1 78 -40 93 -152 57z"/>
<path d="M42375 51983 c-35 -9 -45 -24 -45 -70 0 -50 22 -99 47 -107 10 -3 88
-12 173 -21 265 -27 389 -54 493 -106 65 -34 40 -11 -62 57 -223 145 -523 268
-606 247z"/>
<path d="M43832 51648 c-21 -21 -14 -36 43 -98 l54 -59 -70 -114 c-68 -112
-75 -139 -43 -151 26 -10 39 4 99 104 33 55 62 99 66 98 3 -2 36 -38 73 -80
37 -43 71 -78 76 -78 11 0 40 29 40 40 0 5 -28 42 -62 82 -34 40 -68 81 -76
90 -12 14 -10 24 19 75 35 64 34 93 -3 93 -17 0 -31 -13 -52 -47 l-29 -48 -47
53 c-47 53 -66 62 -88 40z"/>
<path d="M41790 51480 c-12 -23 -76 -293 -114 -480 -81 -404 -94 -738 -40
-1021 16 -87 27 -109 51 -109 24 0 131 87 246 199 110 108 128 139 89 160 -16
8 -31 -3 -93 -66 -121 -123 -211 -197 -219 -182 -30 55 -43 448 -21 649 17
150 64 405 116 624 50 210 52 231 29 240 -25 10 -33 7 -44 -14z"/>
<path d="M41108 51250 c-75 -40 -104 -151 -57 -227 43 -69 154 -95 219 -50 57
38 75 71 75 137 0 66 -18 99 -75 138 -41 28 -111 29 -162 2z"/>
<path d="M42528 51150 c-52 -28 -78 -75 -78 -141 0 -162 195 -218 294 -85 29
39 29 133 0 173 -53 72 -140 93 -216 53z"/>
<path d="M42243 50118 c-6 -7 -13 -29 -17 -49 -8 -47 -56 -120 -97 -150 -18
-13 -63 -31 -99 -39 -51 -13 -66 -21 -68 -37 -13 -87 199 -20 277 88 36 48 64
128 59 166 -3 31 -37 44 -55 21z"/>
<path d="M38637 49890 c-42 -13 -92 -55 -110 -93 -14 -28 -134 -402 -299 -927
-16 -52 -73 -230 -125 -395 -52 -165 -110 -347 -128 -405 -18 -58 -90 -285
-160 -505 -70 -220 -157 -492 -192 -605 -122 -389 -293 -926 -598 -1885 -75
-236 -168 -529 -207 -650 -38 -121 -114 -362 -169 -535 -55 -173 -122 -382
-149 -465 -174 -537 -260 -817 -260 -851 0 -52 36 -121 83 -158 29 -23 50 -31
95 -34 61 -4 -26 -25 1532 362 388 96 1124 278 1635 405 512 127 969 241 1018
253 84 22 87 24 87 51 0 37 36 71 138 131 105 61 211 105 451 187 113 38 207
72 210 76 3 3 -3 3 -14 -1 -125 -46 -501 -83 -1030 -101 l-180 -7 -825 -204
c-454 -113 -1023 -254 -1265 -314 -242 -60 -658 -163 -925 -229 -267 -67 -488
-121 -491 -121 -8 0 -10 -5 131 435 172 540 313 983 490 1540 89 281 194 614
235 740 40 127 141 444 223 705 83 261 194 612 247 780 54 168 153 483 222
700 68 217 171 541 228 720 57 179 136 429 176 555 40 127 75 234 79 238 7 8
60 -48 585 -623 148 -162 387 -423 530 -580 272 -297 810 -886 1783 -1952 315
-346 576 -628 580 -628 4 0 153 -32 331 -70 178 -39 327 -69 332 -68 4 2 -83
102 -194 224 -111 121 -503 551 -872 954 -368 404 -793 870 -944 1035 -395
431 -652 713 -846 925 -275 300 -763 835 -1003 1099 -242 266 -286 302 -366
300 -22 0 -54 -5 -69 -9z"/>
<path d="M48625 48865 c-451 -143 -820 -292 -1200 -485 -390 -198 -715 -408
-1025 -665 -124 -103 -405 -384 -503 -505 -104 -127 -207 -271 -207 -290 0 -8
30 -56 68 -105 l67 -90 80 2 c231 5 2150 363 2998 560 l77 18 0 76 c0 166 -35
508 -106 1024 -25 182 -50 368 -56 415 -6 47 -14 88 -17 92 -3 4 -82 -18 -176
-47z m45 -1322 c24 -31 20 -68 -10 -94 -12 -10 -72 -24 -162 -38 -235 -37
-537 -91 -918 -165 -394 -77 -1037 -231 -1475 -353 -319 -89 -314 -89 -344
-28 -12 25 -12 32 0 54 8 14 26 32 40 38 75 36 925 254 1394 357 487 107 1290
253 1402 255 45 1 54 -3 73 -26z"/>
<path d="M65208 48663 c-64 -71 -179 -193 -255 -272 l-138 -143 -170 173 c-93
96 -209 216 -258 267 -78 84 -89 92 -106 80 -10 -7 -67 -59 -126 -116 l-108
-103 94 -97 c52 -53 170 -175 264 -270 l170 -174 -259 -253 -259 -253 114
-121 c63 -67 117 -120 121 -119 4 2 122 113 264 248 141 135 259 245 263 245
4 0 106 -93 227 -206 120 -113 239 -223 263 -245 l43 -38 114 119 c62 66 113
123 114 126 0 3 -78 78 -172 166 -95 89 -213 199 -263 246 l-90 85 106 109
c139 141 409 434 409 443 0 4 -48 52 -107 106 -60 55 -114 105 -121 112 -7 6
-14 12 -15 12 -1 0 -55 -57 -119 -127z"/>
<path d="M28330 48625 c-447 -53 -858 -174 -1231 -361 -518 -259 -967 -636
-1308 -1097 -128 -172 -339 -528 -356 -600 -5 -18 6 -31 49 -64 95 -73 156
-176 156 -264 0 -20 -6 -41 -13 -47 -7 -6 -87 -14 -185 -18 l-171 -7 -20 -59
-20 -59 37 -32 c215 -186 383 -361 559 -582 187 -235 403 -579 403 -643 0 -65
-55 -122 -118 -122 -16 0 -66 11 -110 23 -45 13 -78 19 -75 13 4 -6 27 -36 53
-66 132 -156 9 -43 -152 140 -143 162 -243 291 -373 483 l-105 156 55 33 c30
18 55 38 55 45 0 23 -12 43 -27 43 -9 0 -89 -41 -179 -90 -331 -183 -643 -319
-1006 -437 -114 -37 -210 -74 -213 -81 -3 -7 0 -23 6 -34 13 -24 14 -23 187
33 l124 40 56 -52 c139 -127 542 -519 695 -675 147 -150 167 -175 167 -203 0
-18 -7 -46 -17 -61 -16 -27 -15 -32 26 -151 169 -493 452 -956 819 -1340 l102
-107 408 273 c224 151 578 388 787 528 209 140 580 390 825 554 714 479 1725
1158 2128 1428 205 138 681 457 1058 710 377 253 688 463 690 467 11 17 -165
378 -268 549 -301 498 -730 928 -1230 1230 -415 251 -871 413 -1385 490 -179
27 -703 36 -883 14z m600 -431 c69 -9 133 -20 143 -26 27 -14 40 -57 27 -89
-18 -42 -51 -48 -165 -31 -74 12 -178 16 -400 16 -278 0 -312 -2 -462 -26
-558 -93 -1026 -292 -1450 -619 -83 -64 -109 -79 -137 -79 -62 0 -90 77 -43
121 45 43 249 192 349 255 118 74 352 195 483 250 302 125 681 217 1005 243
156 13 498 5 650 -15z m-3522 -2989 c101 -148 169 -238 284 -377 123 -148 346
-378 366 -378 8 0 23 6 31 14 14 13 23 2 84 -98 76 -126 88 -167 63 -215 -20
-38 -70 -71 -108 -71 -34 0 -186 79 -320 166 -195 126 -504 460 -764 825 -47
67 -87 126 -90 133 -2 6 70 47 168 97 l173 85 18 -35 c11 -20 53 -85 95 -146z
m-468 -108 c164 -244 342 -458 611 -732 120 -123 213 -226 223 -249 23 -49 10
-103 -35 -140 -49 -41 -98 -36 -197 22 -156 89 -265 175 -417 327 -202 202
-478 470 -598 581 l-97 91 137 54 c76 29 176 70 223 91 47 20 87 37 90 37 3 0
30 -37 60 -82z m3649 -743 c44 -56 28 -77 -147 -197 -75 -52 -424 -290 -774
-530 -497 -341 -644 -437 -667 -437 -59 0 -89 59 -56 107 8 12 212 156 452
321 241 165 589 403 773 530 363 250 378 258 419 206z"/>
<path d="M17162 47380 c-67 -42 -78 -136 -23 -191 82 -81 219 -15 208 100 -10
89 -109 139 -185 91z"/>
<path d="M58063 45681 c-72 -51 -139 -123 -188 -201 -47 -75 -84 -178 -130
-360 -70 -276 -93 -306 -228 -304 -66 1 -116 11 -257 52 -207 59 -250 69 -350
77 -166 14 -352 -50 -460 -159 -107 -108 -161 -225 -230 -496 -48 -186 -69
-239 -112 -275 -52 -44 -124 -30 -348 70 -179 79 -255 98 -400 97 -138 0 -258
-25 -252 -52 2 -8 48 -94 103 -191 l100 -176 67 -5 c51 -4 97 -17 183 -53 274
-114 378 -145 482 -145 133 1 277 61 371 154 105 103 149 199 222 481 86 332
130 365 389 295 277 -75 335 -89 415 -100 101 -14 188 -6 287 25 94 30 158 71
233 151 89 96 142 212 191 419 31 137 60 226 84 265 22 35 78 89 110 107 14 8
1 36 -87 191 -57 100 -108 182 -114 182 -6 0 -42 -22 -81 -49z"/>
<path d="M41166 44914 c-9 -8 -16 -17 -16 -19 0 -2 30 -83 66 -179 36 -97 64
-182 61 -189 -5 -14 -321 -185 -572 -310 -198 -99 -461 -220 -625 -288 -63
-26 -119 -55 -125 -63 -14 -22 7 -52 33 -49 70 8 869 388 1180 562 l144 79 13
-31 c7 -18 41 -99 74 -181 81 -199 97 -221 131 -181 10 13 10 23 -2 53 -78
188 -206 514 -249 632 -65 178 -79 199 -113 164z"/>
<path d="M15670 44225 c0 -338 -3 -615 -7 -615 -5 0 -144 136 -310 302 l-303
303 -87 -88 -88 -87 303 -303 c166 -166 302 -305 302 -310 0 -4 -277 -7 -615
-7 l-615 0 0 -120 0 -120 615 0 c338 0 615 -3 615 -7 0 -5 -136 -144 -302
-310 l-303 -303 88 -87 87 -88 303 303 c166 166 305 302 310 302 4 0 7 -277 7
-615 l0 -615 120 0 120 0 0 615 c0 338 3 615 7 615 5 0 144 -136 310 -302
l303 -303 87 88 88 87 -303 303 c-166 166 -302 305 -302 310 0 4 277 7 615 7
l615 0 0 120 0 120 -622 0 -623 0 310 310 310 310 -88 87 -87 88 -303 -303
c-166 -166 -305 -302 -310 -302 -4 0 -7 277 -7 615 l0 615 -120 0 -120 0 0
-615z"/>
<path d="M41065 44643 c-274 -120 -665 -268 -1060 -401 -89 -30 -111 -41 -113
-58 -2 -11 4 -26 12 -33 13 -11 33 -7 113 19 285 94 826 299 1078 408 91 40
109 58 85 87 -17 20 -23 19 -115 -22z"/>
<path d="M48503 44208 c-4 -7 -8 -51 -8 -98 0 -74 -4 -94 -32 -151 -40 -86
-88 -138 -163 -178 -62 -33 -75 -56 -45 -81 24 -20 108 24 177 92 66 64 112
150 129 243 12 63 5 151 -13 172 -13 16 -35 17 -45 1z"/>
<path d="M1915 43490 l-390 -390 390 -390 390 -390 392 392 393 393 -387 387
c-214 214 -390 388 -393 388 -3 0 -181 -175 -395 -390z"/>
<path d="M67862 43781 c-143 -49 -206 -206 -138 -344 76 -156 281 -184 401
-56 63 67 81 157 53 253 -18 60 -92 131 -159 150 -67 20 -91 20 -157 -3z"/>
<path d="M31423 43215 c-87 -37 -93 -164 -11 -215 77 -48 188 9 188 97 0 50
-32 101 -75 119 -42 17 -61 17 -102 -1z"/>
<path d="M48710 40604 c-1245 -74 -2368 -625 -3166 -1555 -540 -629 -900
-1419 -1019 -2235 -36 -244 -43 -376 -40 -674 3 -302 15 -454 40 -525 21 -61
52 -214 74 -376 11 -80 37 -202 57 -270 20 -68 38 -132 41 -141 3 -10 8 -18
12 -18 3 0 19 45 35 100 36 126 62 181 115 247 72 91 128 103 159 35 36 -79
18 -469 -39 -836 -11 -71 -18 -130 -17 -131 26 -17 301 -241 418 -339 208
-176 449 -416 489 -486 27 -48 31 -65 31 -130 0 -135 19 -292 38 -313 9 -11
75 -66 145 -122 571 -459 1274 -774 1996 -894 156 -27 350 -48 499 -57 l122
-7 0 -56 c1 -118 42 -247 108 -334 33 -44 140 -127 163 -127 18 0 89 125 120
210 33 91 58 208 59 277 l0 42 58 6 c31 4 129 17 216 29 l159 22 151 -34 c286
-63 348 -45 365 107 l6 54 85 27 c191 61 414 152 622 256 98 49 138 64 171 64
64 0 189 35 258 72 34 17 84 53 112 80 l51 48 60 -58 c78 -74 137 -115 239
-162 127 -60 221 -81 377 -87 l135 -5 -3 -64 c-6 -110 36 -243 103 -322 22
-27 26 -38 21 -66 -5 -27 -16 -40 -53 -61 -60 -36 -115 -86 -159 -146 -111
-152 -113 -383 -5 -545 46 -69 47 -110 2 -121 -97 -23 -193 -109 -249 -222
-34 -68 -37 -83 -40 -177 -4 -88 -1 -116 22 -195 15 -50 45 -131 67 -180 l41
-88 -12 -65 c-12 -64 -13 -66 -58 -88 -74 -37 -148 -111 -184 -186 -31 -62
-33 -74 -32 -162 0 -81 4 -104 27 -153 14 -32 42 -77 62 -102 34 -40 36 -46
26 -79 -8 -31 -5 -44 19 -94 37 -73 105 -150 189 -214 73 -55 246 -143 302
-153 68 -12 68 -13 2 -142 -100 -195 -218 -380 -329 -515 -123 -150 -330 -331
-481 -422 -292 -174 -672 -256 -1067 -228 -300 22 -538 72 -881 187 -446 149
-797 328 -1420 725 -208 133 -544 340 -551 340 -8 0 -45 -140 -68 -257 -74
-383 -154 -1313 -186 -2153 -17 -470 -33 -579 -102 -715 -33 -65 -46 -85 -58
-85 -10 0 -306 213 -430 310 -231 179 -459 373 -681 582 l-126 118 -7 -77
c-15 -188 2 -590 34 -779 32 -187 88 -334 149 -388 11 -11 21 -24 21 -30 0 -6
17 -22 37 -35 86 -56 510 -307 908 -538 621 -361 866 -512 906 -559 23 -27 42
-82 82 -234 225 -852 893 -4547 1212 -6693 19 -131 35 -239 35 -241 0 -2 42
-6 93 -9 217 -14 444 -117 730 -330 236 -176 469 -376 571 -490 775 -866 1845
-1578 3061 -2037 302 -114 335 -137 664 -469 151 -152 267 -267 259 -256 -8
11 -59 74 -113 139 -233 285 -564 748 -722 1011 -264 440 -453 886 -544 1292
-21 96 -22 102 -6 127 24 36 62 44 95 19 21 -15 30 -35 40 -84 60 -291 199
-664 364 -979 326 -621 932 -1423 1463 -1938 412 -399 865 -697 1282 -842 51
-18 98 -38 104 -46 13 -16 16 -51 6 -80 -7 -19 1 -25 75 -57 325 -138 750
-274 1116 -356 312 -70 494 -100 897 -147 414 -48 645 -97 834 -179 144 -61
249 -130 476 -314 302 -243 513 -343 853 -406 441 -82 789 -93 3277 -105 1089
-5 2081 -14 2204 -20 123 -5 226 -8 229 -5 2 2 -1 106 -7 231 -7 124 -11 227
-9 229 2 1 140 -13 307 -31 l304 -34 129 135 c185 193 387 355 442 355 37 0
66 -33 66 -74 0 -19 -4 -37 -9 -41 -6 -3 3 -37 20 -77 70 -170 123 -382 145
-578 8 -74 23 -160 34 -190 10 -30 81 -206 158 -390 76 -184 190 -463 253
-618 l114 -284 5 109 c12 241 15 559 15 1398 0 887 -7 1365 -25 1647 -16 251
-18 258 -88 278 -165 47 -743 102 -1522 145 -157 9 -321 19 -365 23 l-80 7
-13 250 c-8 137 -15 252 -18 254 -2 2 -75 -6 -161 -18 -632 -85 -1040 -62
-1399 79 -166 66 -310 156 -575 361 -303 234 -408 297 -570 343 -281 80 -612
99 -1504 84 -558 -10 -971 -5 -1260 13 -176 11 -675 66 -675 74 0 1 6 20 14
42 l14 40 -87 27 c-310 100 -649 283 -911 492 -109 87 -357 335 -444 444 -172
217 -322 483 -438 780 -175 448 -215 544 -265 645 -64 128 -138 245 -210 331
-66 79 -73 122 -25 152 l28 17 -313 685 c-575 1256 -673 1473 -669 1477 13 13
320 -167 462 -272 49 -36 92 -65 96 -65 14 0 9 34 -22 161 -100 419 -492 1726
-1136 3794 -252 809 -262 839 -299 955 -19 58 -109 344 -200 635 -161 515
-258 821 -539 1705 -130 407 -134 426 -119 450 28 44 201 207 463 433 775 672
1003 887 1161 1096 86 113 127 221 96 252 -8 8 -18 31 -22 50 -14 69 -225 452
-411 745 -180 285 -450 658 -458 633 -3 -8 -10 -41 -16 -74 -41 -212 -155
-639 -246 -920 -77 -236 -244 -695 -260 -714 -6 -7 -168 31 -198 46 -129 66
-406 412 -1231 1538 -213 292 -437 594 -497 673 -71 93 -107 149 -104 160 3 9
15 107 28 217 18 171 22 257 22 600 1 414 -3 506 -29 760 -88 846 -335 1746
-711 2593 -111 250 -287 604 -370 742 -44 73 -58 107 -62 146 -11 125 70 488
224 1006 l56 187 -106 120 c-118 134 -277 332 -349 433 -151 211 -153 319 -7
284 118 -28 181 -72 446 -309 l151 -135 -66 88 c-127 170 -274 428 -376 660
-85 192 -101 244 -97 304 2 16 4 16 18 5 9 -7 43 -13 82 -14 80 -1 118 -19
224 -104 217 -175 468 -480 628 -764 43 -77 59 -97 76 -97 41 0 39 34 -6 118
-158 293 -419 609 -665 807 -88 70 -93 76 -137 171 -26 55 -50 112 -53 127 -7
27 -6 28 21 21 162 -38 375 -130 537 -232 194 -122 344 -245 628 -514 86 -81
163 -148 172 -148 9 0 21 9 26 19 14 26 0 43 -208 238 -358 336 -654 542 -926
642 -59 21 -61 24 -124 123 -160 252 -349 486 -576 714 -701 704 -1636 1147
-2636 1249 -145 15 -537 26 -659 19z m-1555 -1109 c48 -47 29 -92 -55 -135
-340 -172 -719 -486 -985 -817 -595 -742 -858 -1672 -729 -2585 16 -109 16
-119 0 -143 -13 -19 -25 -25 -55 -25 -59 0 -69 19 -93 176 -19 120 -22 181
-23 449 0 324 6 399 56 655 169 872 684 1681 1393 2191 101 73 325 210 390
240 54 25 72 24 101 -6z m-1523 -4306 c21 -29 158 -430 158 -464 0 -28 -43
-65 -75 -65 -41 0 -63 43 -141 270 -71 208 -76 226 -63 249 30 54 86 58 121
10z m7318 -4305 c205 -61 249 -264 110 -499 -45 -76 -159 -191 -232 -233 -84
-50 -306 -118 -324 -100 -8 9 84 497 141 745 l17 73 46 14 c63 20 177 20 242
0z m736 -2641 c336 -413 637 -747 1054 -1168 157 -159 307 -318 333 -351 53
-70 127 -201 127 -225 0 -32 -40 -69 -74 -69 -39 0 -54 15 -95 97 -45 91 -103
156 -445 503 -396 401 -685 722 -997 1105 -126 156 -139 174 -139 198 0 28 45
67 78 67 25 0 45 -20 158 -157z m-5123 -931 c25 -22 22 -54 -23 -278 -133
-657 -213 -1191 -237 -1584 -15 -234 -9 -760 10 -937 19 -171 17 -192 -23
-213 -28 -15 -46 -12 -74 13 -23 20 -27 35 -40 162 -25 228 -30 318 -30 560 1
415 38 808 130 1360 47 279 152 836 171 898 6 22 60 47 82 39 9 -3 24 -12 34
-20z m1964 -3063 c263 -99 471 -190 680 -299 1055 -551 1901 -1350 2513 -2375
115 -193 280 -520 280 -556 0 -51 -52 -83 -104 -63 -8 3 -51 78 -95 167 -206
418 -469 819 -787 1202 -138 167 -581 610 -749 749 -552 458 -1165 813 -1813
1051 -131 48 -157 80 -111 139 28 36 58 34 186 -15z m184 -643 c277 -105 566
-270 829 -472 214 -164 597 -572 676 -720 22 -41 11 -83 -27 -101 -44 -21 -67
-5 -154 111 -260 349 -596 644 -975 859 -117 65 -314 159 -405 192 -55 20 -95
56 -95 86 0 25 43 69 68 69 11 0 48 -11 83 -24z"/>
<path d="M52647 30673 c-16 -15 -5 -41 32 -77 l40 -39 -50 -58 c-36 -40 -50
-64 -47 -81 6 -44 38 -34 93 28 l52 58 44 -63 c45 -64 70 -75 92 -40 8 13 0
31 -36 83 -26 37 -47 68 -47 70 0 1 21 17 46 35 33 24 44 39 42 55 -5 34 -44
32 -95 -4 l-45 -32 -37 36 c-34 33 -68 45 -84 29z"/>
<path d="M42395 40276 c-44 -20 -66 -49 -72 -97 -14 -105 94 -174 185 -119 32
20 62 71 62 106 0 27 -30 82 -54 98 -35 22 -87 28 -121 12z"/>
<path d="M6335 39550 c-118 -21 -200 -66 -287 -158 -92 -96 -138 -210 -138
-342 0 -138 44 -253 134 -348 162 -173 392 -215 602 -112 356 174 380 675 44
890 -93 59 -245 89 -355 70z"/>
<path d="M62140 39549 c-94 -16 -194 -71 -269 -146 -201 -204 -199 -516 3
-719 242 -241 650 -180 808 121 20 39 41 95 48 126 16 72 8 218 -15 284 -40
115 -141 232 -244 285 -91 46 -231 67 -331 49z"/>
<path d="M68175 39260 c-1327 -5 -1422 -6 -1452 -22 -51 -28 -92 -79 -110
-135 -27 -85 -14 -118 173 -441 160 -276 562 -969 1109 -1912 304 -524 1600
-2763 1887 -3260 110 -190 204 -349 209 -355 5 -5 9 159 9 426 l0 434 -538
930 c-429 741 -1619 2794 -1877 3240 -288 496 -375 647 -375 651 0 2 462 4
1028 4 565 0 1192 3 1395 7 l367 6 -2 216 -3 216 -200 0 c-110 0 -839 -2
-1620 -5z"/>
<path d="M21404 37993 c71 -897 376 -1785 873 -2543 155 -236 410 -568 424
-552 3 4 25 144 48 312 105 753 198 1191 322 1518 47 124 60 142 105 142 41 0
80 -43 131 -143 93 -185 111 -287 123 -692 15 -491 26 -567 145 -980 134 -466
161 -622 151 -869 -3 -83 -8 -165 -12 -183 -6 -32 -6 -33 137 -126 267 -175
544 -324 828 -446 79 -34 147 -58 151 -54 4 4 33 89 65 188 154 486 293 775
372 775 60 0 90 -246 102 -819 l6 -314 89 249 c248 698 538 1502 548 1522 33
63 131 63 164 -1 21 -40 15 -154 -21 -382 -20 -128 -119 -642 -140 -730 l-5
-20 9 20 c5 11 41 121 81 245 180 561 391 1092 464 1165 37 37 88 34 128 -6
l31 -30 -6 -92 c-11 -167 -94 -560 -212 -1012 -30 -114 -54 -209 -52 -211 1
-1 28 70 61 159 140 390 258 663 297 690 37 26 95 22 126 -9 26 -26 26 -27 20
-137 -6 -119 -41 -353 -83 -549 -14 -66 -23 -122 -21 -124 2 -2 11 22 21 54
54 174 78 230 102 241 33 15 59 14 93 -4 55 -28 56 -51 11 -266 -55 -257 -120
-539 -181 -781 -27 -109 -49 -200 -49 -203 0 -11 271 -4 440 10 711 63 1359
244 1976 553 564 282 1021 616 1464 1068 765 781 1260 1733 1466 2819 28 145
74 514 74 587 l0 48 -1589 0 -1589 0 -17 -77 c-185 -860 -687 -1556 -1366
-1892 -790 -392 -1690 -224 -2349 438 -130 131 -216 237 -328 406 -195 292
-354 672 -428 1020 -9 44 -18 86 -20 93 -3 9 -330 12 -1595 12 l-1592 0 7 -87z"/>
<path d="M53922 37676 c-117 -129 -239 -239 -333 -299 -31 -20 -125 -72 -209
-117 -192 -102 -289 -167 -367 -246 -63 -64 -123 -155 -123 -186 0 -19 35 -42
49 -33 5 3 23 30 40 60 67 118 183 210 439 344 180 95 262 148 365 236 83 70
297 303 297 322 0 13 -27 43 -39 43 -5 0 -58 -56 -119 -124z"/>
<path d="M62664 37391 c-30 -19 -54 -64 -54 -103 0 -35 32 -88 61 -103 64 -33
145 -10 173 49 20 42 20 69 1 110 -30 63 -118 86 -181 47z"/>
<path d="M23186 36620 c-42 -113 -111 -377 -156 -595 -70 -337 -206 -1264
-191 -1294 30 -56 467 -456 661 -606 l75 -57 8 68 c21 189 -17 418 -143 859
-130 456 -138 506 -150 950 -9 353 -22 485 -60 600 -26 77 -37 95 -44 75z"/>
<path d="M17065 36339 c-183 -18 -363 -80 -493 -168 -137 -93 -268 -242 -334
-381 -18 -38 -35 -69 -38 -69 -3 -1 -21 29 -40 66 -46 88 -180 224 -283 287
-98 61 -259 126 -412 168 -116 31 -126 32 -320 32 -176 0 -210 -3 -280 -22
-182 -50 -376 -176 -471 -305 -178 -243 -235 -345 -275 -492 -19 -67 -22 -107
-22 -245 0 -148 2 -175 27 -265 51 -188 160 -379 289 -504 l56 -55 -92 -95
c-106 -110 -159 -184 -221 -308 -100 -203 -142 -419 -117 -605 6 -48 25 -146
42 -220 54 -231 32 -328 -103 -453 -93 -86 -238 -157 -553 -270 -559 -200
-697 -255 -905 -361 -491 -250 -777 -591 -900 -1074 -44 -174 -62 -327 -62
-550 0 -295 37 -561 127 -917 47 -183 58 -213 79 -213 38 0 36 25 -18 242
-133 530 -159 939 -86 1323 43 221 152 474 274 636 118 156 320 329 517 442
175 100 444 215 784 335 94 33 214 76 268 96 53 19 97 33 97 31 0 -2 -33 -23
-72 -46 -97 -56 -265 -168 -363 -242 -499 -376 -823 -823 -949 -1308 -51 -198
-60 -280 -60 -519 0 -205 2 -236 27 -351 63 -299 184 -539 366 -730 l79 -82
-82 -106 c-534 -692 -775 -1192 -816 -1688 -15 -192 10 -413 69 -593 34 -103
145 -317 216 -415 84 -117 212 -254 327 -351 333 -280 838 -498 1190 -516 31
-2 54 -6 52 -10 -12 -19 -200 -136 -297 -185 -102 -51 -295 -123 -330 -123 -9
0 -22 -6 -29 -13 -7 -7 -71 -21 -143 -31 -428 -58 -863 -195 -1268 -397 -180
-90 -262 -139 -467 -275 -203 -134 -316 -222 -610 -474 -391 -335 -574 -468
-785 -570 -235 -114 -390 -146 -670 -137 -187 5 -280 18 -605 82 -408 80 -637
101 -845 76 -590 -70 -1167 -499 -1502 -1121 -51 -94 -119 -244 -125 -275 -2
-13 28 -24 147 -55 204 -52 292 -81 485 -157 717 -283 1369 -779 1899 -1443
141 -177 229 -372 352 -777 47 -157 130 -470 289 -1088 238 -929 415 -1390
603 -1579 148 -147 483 -282 827 -333 124 -18 510 -24 672 -11 148 13 365 38
548 63 281 39 565 73 705 85 180 14 528 15 660 1 530 -56 1021 -294 1434 -696
213 -207 377 -412 726 -910 93 -132 194 -274 224 -315 228 -312 503 -607 704
-757 267 -198 572 -330 896 -385 179 -30 455 -30 631 1 111 19 314 71 326 84
3 2 -18 101 -46 218 -196 821 -272 1231 -336 1799 -25 225 -29 804 -10 1285 9
220 18 425 21 455 2 30 7 107 10 170 3 63 10 189 15 280 6 91 12 208 15 260 5
93 14 248 54 920 11 184 23 369 26 410 77 1038 53 1973 -80 3093 -19 160 -35
303 -35 316 0 13 11 52 24 85 14 34 41 138 60 232 160 764 436 1327 863 1764
249 255 444 398 873 635 366 203 421 249 509 429 63 127 90 219 151 504 26
125 59 260 72 300 14 39 22 74 20 77 -3 3 -51 5 -106 5 -209 0 -613 31 -789
60 -49 8 -63 6 -84 -7 -23 -15 -32 -15 -126 1 -144 25 -456 106 -622 161 -430
143 -874 362 -1243 615 -121 83 -298 217 -389 296 -59 51 -69 88 -33 124 38
38 67 26 200 -81 607 -487 1307 -816 2065 -968 103 -21 154 -36 162 -48 7 -9
14 -15 17 -12 2 2 69 153 149 334 593 1345 867 1959 877 1969 16 16 343 20
504 7 71 -6 131 -9 134 -6 17 16 -127 339 -217 489 -382 632 -1076 1042 -1813
1073 -82 3 -148 9 -148 12 0 35 -35 208 -56 273 -43 138 -143 309 -228 387
-14 14 -26 28 -26 32 0 4 29 18 63 32 200 80 372 240 479 444 92 177 123 317
115 520 -5 144 -21 212 -74 323 -49 104 -175 229 -288 287 -128 65 -176 78
-295 78 -94 0 -111 -3 -164 -28 -32 -15 -60 -26 -61 -25 -2 2 1 26 6 53 58
347 5 803 -127 1104 -14 30 -23 55 -21 57 1 2 30 -11 64 -28 165 -81 419 -26
635 139 42 32 140 114 217 183 246 217 357 279 553 306 62 9 128 24 148 34
139 72 164 252 63 455 -94 189 -344 363 -628 436 -265 68 -569 46 -798 -58
-63 -29 -82 -34 -95 -25 -59 40 -239 141 -318 178 -294 136 -615 200 -879 173z
m-1678 -148 c282 -59 522 -184 646 -337 26 -32 66 -95 88 -139 l40 -80 -23 -5
c-19 -5 -26 -18 -40 -75 -9 -39 -17 -72 -17 -74 -1 -3 -21 26 -46 63 -33 48
-44 73 -39 90 6 27 -17 51 -45 43 -21 -5 -101 71 -189 183 -104 132 -255 235
-421 289 -35 12 -112 26 -170 32 -125 14 -265 -2 -391 -45 -86 -30 -83 -29
-76 -17 10 16 169 68 246 81 41 6 82 13 90 15 37 9 263 -7 347 -24z m-813
-1882 c25 -16 80 -46 121 -65 l76 -35 -45 -52 c-224 -253 -363 -528 -423 -832
-22 -116 -23 -367 0 -475 8 -41 12 -78 9 -82 -6 -5 -198 -91 -282 -126 -8 -3
6 18 32 47 59 66 96 141 111 224 11 69 10 77 -53 372 -19 84 -21 121 -17 235
8 205 54 353 169 537 46 75 230 283 250 283 4 0 27 -14 52 -31z m3055 -897
c-16 -2 -29 -5 -29 -7 0 -3 14 -39 31 -82 54 -135 144 -392 197 -563 52 -168
146 -520 140 -525 -2 -1 -67 -8 -146 -15 -390 -33 -639 79 -766 345 -39 81
-66 191 -66 267 1 186 101 367 264 476 87 58 159 87 256 103 66 11 69 13 64
36 l-6 24 45 -28 45 -28 -29 -3z m2176 -3837 c14 -13 25 -34 25 -46 0 -12 -31
-70 -69 -128 -366 -564 -661 -1224 -831 -1861 -23 -85 -45 -165 -50 -177 -12
-29 -56 -40 -88 -22 -48 27 -49 40 -18 162 165 640 447 1293 813 1883 136 220
164 244 218 189z m-6690 -5280 c29 -29 33 -75 8 -97 -10 -9 -484 -278 -1053
-598 -569 -321 -1195 -673 -1390 -783 -625 -353 -804 -434 -1095 -498 -78 -18
-360 -18 -440 0 -33 7 -132 32 -220 56 -233 64 -331 84 -473 96 -151 13 -327
2 -493 -32 l-109 -23 -25 24 c-30 28 -34 79 -7 103 24 22 164 54 296 68 150
16 432 6 560 -20 54 -11 170 -41 258 -66 219 -63 293 -76 433 -77 285 -1 527
90 1085 407 80 45 579 327 1110 625 531 299 1082 610 1225 691 143 81 270 148
283 148 13 1 34 -10 47 -24z m-1450 -1340 c40 -39 32 -65 -57 -182 -325 -428
-541 -650 -802 -824 -411 -272 -900 -329 -1273 -147 -79 39 -113 69 -113 101
0 33 37 77 64 77 13 0 63 -20 112 -45 135 -67 238 -89 414 -89 151 0 207 8
349 50 367 110 699 389 1110 932 121 161 147 177 196 127z m4961 -210 l25 -25
-2 -368 c-7 -1029 -104 -1993 -300 -2998 -192 -988 -356 -1419 -665 -1753
-167 -181 -341 -178 -433 7 -40 80 -90 332 -111 567 -17 191 -10 647 15 900
23 234 38 563 39 805 0 283 -8 398 -41 575 l-16 90 -23 -52 c-13 -28 -60 -152
-104 -275 -127 -346 -165 -440 -255 -623 -172 -350 -352 -559 -585 -680 -326
-168 -645 -102 -769 159 -16 33 -39 99 -51 146 -60 237 -92 295 -190 339 -60
27 -162 27 -260 1 -41 -11 -172 -68 -290 -125 -263 -128 -363 -158 -510 -153
-81 3 -105 8 -162 35 -77 36 -158 112 -158 148 0 12 9 34 21 49 31 40 68 35
128 -18 61 -54 105 -70 196 -69 110 0 216 35 408 133 281 143 437 186 588 161
185 -30 288 -149 358 -414 42 -160 64 -208 121 -261 57 -53 123 -76 219 -76
182 1 366 91 517 253 194 208 314 437 510 972 146 398 224 585 262 628 40 45
103 4 131 -86 82 -266 119 -652 101 -1049 -5 -123 -12 -248 -15 -278 -34 -352
-55 -885 -44 -1108 12 -262 58 -538 105 -639 34 -71 90 -65 177 21 217 214
378 558 507 1081 278 1135 430 2406 430 3598 l0 358 25 25 c31 31 69 31 101
-1z m-5742 -1761 c32 -32 29 -59 -13 -141 -149 -286 -453 -500 -796 -560 -101
-17 -317 -14 -372 7 -57 21 -68 93 -17 126 21 14 36 15 123 5 356 -42 729 146
916 462 27 45 55 90 64 100 18 21 74 22 95 1z m-835 -2060 c41 -34 104 -168
130 -274 11 -47 32 -157 46 -244 53 -320 114 -432 284 -517 114 -57 163 -64
426 -63 255 1 229 -2 864 93 362 55 672 63 946 26 571 -77 1120 -320 1569
-696 108 -91 306 -292 396 -403 101 -124 200 -277 200 -306 0 -42 -49 -76 -94
-64 -15 3 -47 40 -89 102 -453 668 -1210 1124 -2034 1226 -148 19 -477 19
-643 2 -74 -8 -254 -33 -400 -56 -358 -55 -496 -70 -685 -75 -329 -8 -532 50
-676 194 -116 116 -160 228 -214 546 -37 216 -56 284 -110 382 -41 75 -43 96
-10 128 31 32 56 31 94 -1z m6913 -2511 c11 -13 18 -65 26 -198 21 -325 103
-636 245 -929 71 -146 169 -312 228 -387 35 -44 37 -84 7 -116 -49 -53 -90
-24 -198 139 -267 403 -419 887 -432 1374 -3 79 0 95 16 113 24 27 86 29 108
4z"/>
<path d="M17340 32965 c-20 -24 -3 -48 80 -108 52 -39 80 -66 80 -78 0 -18
-29 -79 -68 -141 -16 -25 -16 -29 -1 -44 10 -10 25 -14 36 -10 20 6 93 119 93
143 0 22 16 15 89 -43 78 -61 116 -69 116 -24 0 22 -55 73 -160 146 -14 10
-18 24 -17 49 2 19 -2 44 -8 56 -14 26 -51 22 -65 -8 -11 -21 -12 -21 -75 28
-68 53 -81 57 -100 34z"/>
<path d="M39100 36080 c-14 -4 -219 -87 -457 -184 -237 -96 -532 -216 -655
-266 -123 -50 -277 -113 -343 -140 -66 -27 -268 -109 -450 -183 -181 -74 -530
-215 -775 -315 -245 -99 -656 -267 -915 -372 -258 -105 -524 -213 -590 -240
-66 -27 -415 -169 -775 -315 -689 -280 -704 -288 -736 -362 -8 -18 -14 -55
-14 -82 0 -51 11 -79 537 -1371 30 -74 89 -218 130 -320 98 -242 168 -413 260
-640 42 -102 185 -455 319 -785 l244 -600 -91 -220 c-181 -436 -541 -1269
-554 -1283 -2 -2 -65 -8 -141 -14 -155 -12 -184 -19 -184 -47 0 -32 20 -38 95
-30 140 16 665 22 840 10 476 -33 833 -109 1016 -216 46 -27 68 -34 79 -27 23
14 23 38 -1 60 -55 52 -304 148 -433 167 -25 4 -48 11 -51 15 -6 10 33 125
310 900 259 725 355 998 355 1010 0 14 -37 31 -54 24 -8 -3 -27 -43 -41 -87
-15 -45 -154 -440 -310 -877 -156 -437 -296 -832 -312 -878 -28 -83 -28 -83
-58 -77 -53 10 -334 45 -368 45 -18 0 -38 4 -45 8 -20 13 591 1839 736 2199
19 47 20 54 6 68 -19 18 -25 19 -46 3 -17 -14 -96 -218 -218 -568 -39 -113
-76 -209 -82 -215 -8 -7 -9 -6 -4 2 4 7 3 20 -2 29 -6 11 -11 -8 -15 -61 -5
-53 -24 -127 -61 -238 -288 -863 -396 -1199 -390 -1209 5 -8 -6 -9 -41 -5 -26
4 -150 7 -276 7 l-228 0 60 132 c106 233 409 945 594 1395 47 113 81 211 78
221 -3 15 4 23 36 36 23 9 60 16 82 16 29 0 40 4 36 13 -3 6 -155 379 -337
827 -182 448 -360 885 -395 970 -198 486 -429 1055 -512 1259 -52 128 -91 237
-86 241 4 4 438 182 963 395 894 363 1060 430 1365 555 66 27 365 149 665 270
623 253 857 348 1020 415 63 26 219 89 345 140 127 52 363 148 525 214 162 66
298 117 301 113 4 -4 98 -232 209 -507 351 -864 398 -979 575 -1415 95 -234
316 -776 490 -1205 174 -429 342 -841 372 -915 30 -74 97 -238 148 -365 52
-126 112 -275 135 -330 87 -211 181 -448 178 -450 -2 -1 -217 -89 -478 -195
-261 -106 -617 -250 -790 -321 -173 -70 -475 -193 -670 -272 -195 -80 -546
-222 -780 -317 -1002 -407 -1405 -572 -1409 -576 -3 -2 1 -10 7 -16 7 -7 12
-20 12 -30 0 -24 -80 -182 -175 -348 -42 -73 -75 -133 -73 -135 2 -2 530 212
1173 475 66 27 210 86 320 130 110 44 254 103 320 130 257 105 1072 437 1295
527 129 52 296 120 370 150 74 30 230 93 345 140 116 47 323 131 460 188 138
56 293 119 345 140 116 46 152 72 179 128 39 80 33 107 -100 434 -67 164 -175
429 -239 588 -65 160 -159 391 -210 515 -50 124 -138 340 -195 480 -57 141
-168 415 -248 610 -79 195 -226 558 -327 805 -101 248 -223 549 -273 670 -49
121 -222 546 -384 945 -202 498 -303 734 -321 754 -52 55 -141 79 -212 56z"/>
<path d="M6611 36059 c-51 -16 -107 -57 -135 -100 -81 -121 -44 -282 81 -356
41 -24 59 -28 123 -28 57 0 85 6 115 22 175 93 180 339 10 439 -51 29 -139 40
-194 23z"/>
<path d="M44306 35547 c-19 -29 -87 -211 -125 -336 -107 -348 -158 -662 -168
-1044 l-6 -218 -156 7 c-86 4 -163 8 -171 10 -8 1 -19 3 -23 3 -11 1 1 315 19
481 28 260 90 526 182 788 35 99 38 114 25 127 -40 40 -64 -2 -138 -240 -104
-336 -164 -728 -165 -1067 l0 -88 -42 5 c-24 3 -105 12 -181 21 -77 8 -145 13
-153 10 -18 -7 -18 -40 -1 -55 27 -22 418 -58 737 -68 224 -6 626 12 648 30 7
5 12 20 10 31 -3 21 -6 21 -173 16 -93 -3 -208 -5 -255 -5 l-85 0 1 190 c3
455 87 879 269 1346 10 25 15 54 12 63 -9 23 -44 20 -61 -7z"/>
<path d="M19297 34598 c-84 -18 -121 -51 -167 -150 -40 -85 -43 -170 -11 -244
l22 -48 140 139 c77 77 147 152 155 167 15 29 18 66 8 92 -13 35 -88 57 -147
44z"/>
<path d="M19645 33959 c-17 -4 -46 -24 -65 -44 -29 -30 -34 -43 -38 -92 -3
-48 0 -64 20 -92 12 -19 35 -43 49 -54 36 -26 116 -26 161 0 36 20 78 92 78
133 0 49 -42 113 -90 138 -47 23 -67 25 -115 11z"/>
<path d="M25887 33769 c-9 -12 -13 -27 -11 -34 3 -7 49 -23 102 -35 243 -56
457 -134 701 -256 91 -45 170 -80 177 -77 16 6 25 29 18 48 -6 16 -183 109
-329 173 -159 70 -396 147 -555 182 -30 6 -62 14 -72 16 -9 3 -23 -4 -31 -17z"/>
<path d="M3368 33724 c-53 -28 -73 -105 -44 -163 21 -40 59 -61 110 -61 54 0
99 33 116 85 25 75 -35 155 -113 155 -23 -1 -54 -7 -69 -16z"/>
<path d="M67643 33200 c-37 -22 -63 -67 -63 -107 0 -61 64 -123 128 -123 42 0
94 39 111 84 40 106 -79 205 -176 146z"/>
<path d="M19892 33188 c-7 -7 -12 -18 -12 -25 0 -15 65 -60 145 -100 201 -101
485 -96 678 12 36 21 47 32 47 51 0 39 -26 39 -103 2 -212 -104 -485 -87 -671
41 -48 34 -66 37 -84 19z"/>
<path d="M6865 32638 c-30 -27 -38 -43 -42 -78 -11 -117 124 -181 207 -99 76
76 31 196 -79 207 -45 4 -52 1 -86 -30z"/>
<path d="M63140 31435 c0 -338 -3 -615 -7 -615 -5 0 -144 136 -310 302 l-303
303 -87 -88 -88 -87 303 -303 c166 -166 302 -305 302 -310 0 -4 -277 -7 -615
-7 l-615 0 0 -120 0 -120 615 0 c338 0 615 -3 615 -7 0 -5 -136 -144 -302
-310 l-303 -303 88 -87 87 -88 303 303 c166 166 305 302 310 302 4 0 7 -277 7
-615 l0 -615 120 0 120 0 0 615 c0 338 3 615 7 615 5 0 144 -136 310 -302
l303 -303 87 88 88 87 -310 310 -310 310 623 0 622 0 0 120 0 120 -622 0 -623
0 310 310 310 310 -88 87 -87 88 -310 -310 -310 -310 0 623 0 622 -120 0 -120
0 0 -615z"/>
<path d="M51118 31777 c-29 -90 -32 -124 -13 -172 9 -25 30 -54 45 -65 29 -21
413 -144 430 -138 16 5 -59 143 -116 212 -87 105 -216 198 -294 210 -35 5 -35
5 -52 -47z"/>
<path d="M50281 31691 c-8 -5 -19 -47 -27 -101 -8 -50 -23 -124 -35 -163 -65
-221 -243 -477 -331 -477 -26 0 -42 10 -83 54 -53 57 -109 96 -137 96 -27 0
-38 -32 -38 -108 0 -191 74 -414 187 -562 42 -55 59 -66 79 -50 22 19 17 37
-31 105 -57 79 -111 195 -134 288 -23 90 -37 227 -23 227 6 0 24 -18 42 -39
87 -111 193 -109 298 8 42 47 133 182 165 246 85 170 146 462 101 479 -19 7
-16 8 -33 -3z"/>
<path d="M49425 31536 c-70 -31 -115 -122 -95 -196 21 -79 86 -130 165 -130
151 0 230 185 123 287 -18 17 -43 36 -55 42 -29 15 -101 13 -138 -3z"/>
<path d="M51003 31219 c-46 -13 -100 -71 -113 -120 -36 -133 97 -253 225 -204
142 54 151 244 15 313 -47 23 -75 26 -127 11z"/>
<path d="M50692 30430 c-174 -106 -440 -180 -654 -180 -92 0 -97 -17 -32 -112
57 -84 123 -139 201 -168 83 -31 232 -25 316 13 77 35 160 119 196 199 41 92
94 256 87 273 -9 25 -48 16 -114 -25z m-9 -147 c-13 -38 -35 -87 -49 -110
-103 -176 -369 -208 -516 -62 -26 26 -48 52 -48 57 0 5 57 16 128 24 151 19
273 53 402 112 52 24 98 44 101 45 4 1 -4 -29 -18 -66z"/>
<path d="M36598 28575 c-3 -3 -101 -45 -218 -93 -117 -48 -217 -94 -221 -102
-12 -22 -78 -194 -76 -196 1 -2 108 77 238 174 310 232 295 221 288 221 -3 1
-8 -1 -11 -4z"/>
<path d="M1515 28248 c25 -111 31 -119 195 -250 467 -374 762 -592 2085 -1540
281 -201 595 -427 700 -502 190 -136 230 -154 186 -83 -27 45 -186 197 -379
365 -685 594 -1657 1332 -2322 1763 -184 119 -450 279 -465 279 -4 0 -3 -14 0
-32z"/>
<path d="M1594 27982 c12 -36 214 -709 253 -837 19 -66 37 -123 40 -127 8 -14
126 74 193 142 67 69 129 164 168 259 12 30 19 58 15 61 -5 4 -75 58 -158 120
-82 63 -221 170 -309 239 -232 184 -210 168 -202 143z"/>
<path d="M2290 27342 c-72 -152 -183 -277 -322 -366 -32 -20 -58 -38 -58 -41
0 -2 11 -39 24 -82 14 -43 68 -222 121 -398 53 -175 99 -323 101 -327 3 -4 40
-8 82 -9 42 0 103 -4 135 -8 68 -8 66 -12 69 118 3 89 16 112 53 97 16 -6 17
-18 13 -120 l-4 -114 80 -21 c115 -31 246 -83 351 -140 75 -40 91 -52 93 -75
6 -45 -22 -42 -136 17 -59 30 -138 67 -176 81 -85 32 -213 66 -220 58 -4 -3
-6 -17 -6 -31 0 -47 -59 -315 -94 -431 l-34 -114 64 -213 c35 -116 64 -214 64
-218 0 -6 66 -36 106 -49 19 -6 27 8 88 161 85 213 185 417 208 421 9 2 22 -6
28 -17 9 -18 0 -44 -55 -162 -68 -147 -175 -408 -175 -427 0 -6 8 -13 18 -16
9 -3 55 -16 102 -30 47 -14 146 -39 219 -55 73 -16 138 -34 143 -39 6 -6 7
-19 3 -31 -5 -16 -15 -21 -38 -21 -38 0 -291 59 -399 93 l-77 25 -32 -96 c-37
-111 -40 -83 46 -367 l58 -190 180 -138 c165 -127 180 -137 192 -120 45 62
269 339 280 346 15 8 45 -17 45 -36 0 -7 -63 -92 -140 -190 -77 -97 -140 -179
-140 -181 0 -2 61 -50 135 -106 139 -106 155 -127 114 -153 -14 -8 -36 4 -114
64 -53 41 -116 89 -139 106 l-43 33 -87 -110 c-48 -61 -89 -116 -92 -123 -2
-7 28 -118 67 -247 91 -300 129 -445 168 -650 36 -185 181 -886 236 -1140 96
-445 183 -868 188 -921 7 -69 53 -119 111 -119 56 0 568 160 946 295 259 93
1210 451 1218 460 8 7 -103 371 -158 520 -169 456 -408 853 -747 1244 -54 62
-113 130 -131 151 l-32 38 80 27 c71 24 79 28 67 43 -6 10 -37 51 -68 92 -337
452 -549 912 -549 1189 0 89 18 155 75 284 l48 108 -61 55 c-163 147 -278 351
-324 574 -40 194 -1 518 63 520 3 0 13 -6 23 -13 18 -13 18 -16 3 -63 -44
-135 -47 -338 -8 -487 25 -94 84 -223 141 -306 48 -71 167 -201 184 -201 33 0
236 666 210 690 -5 4 -200 145 -434 312 -716 513 -1454 1044 -1687 1214 l-221
162 -42 -86z"/>
<path d="M28662 27184 c-96 -25 -164 -65 -235 -135 -207 -206 -203 -531 9
-734 171 -163 452 -181 650 -40 158 113 240 318 201 506 -22 112 -60 183 -142
265 -131 132 -313 184 -483 138z"/>
<path d="M2180 26045 c0 -9 139 -468 144 -472 13 -14 99 379 94 432 -3 28 -6
30 -53 37 -59 7 -185 10 -185 3z"/>
<path d="M42321 25284 c-88 -23 -171 -74 -247 -149 -57 -56 -80 -89 -117 -165
-47 -98 -81 -219 -93 -327 l-7 -63 -61 50 c-33 28 -101 75 -151 105 -446 269
-898 158 -1042 -257 -34 -97 -42 -242 -19 -351 40 -197 152 -382 351 -582 186
-186 267 -236 585 -359 80 -31 204 -80 275 -108 160 -62 357 -155 422 -198 63
-43 131 -108 149 -143 12 -23 14 -53 8 -155 -11 -216 26 -405 126 -638 68
-158 150 -301 308 -537 162 -243 182 -277 182 -309 0 -33 -18 -48 -220 -178
-96 -63 -362 -238 -590 -389 -228 -152 -486 -322 -572 -379 l-158 -102 0 -79
c0 -141 -51 -330 -115 -423 -29 -43 -34 -39 85 -59 94 -17 397 -16 550 0 173
19 550 78 640 101 287 73 528 221 677 415 l31 39 63 -59 c94 -87 174 -143 267
-188 139 -67 279 -64 390 9 150 99 295 438 332 781 l12 111 69 -44 c93 -61
189 -100 294 -120 75 -15 100 -16 168 -6 135 20 243 85 289 176 45 88 32 227
-32 342 l-29 52 21 18 c64 58 82 183 40 276 l-21 48 43 29 c57 39 147 138 180
198 103 182 110 409 18 620 -124 287 -371 477 -740 569 -174 43 -340 59 -458
45 -48 -6 -89 -9 -91 -8 -1 2 7 27 18 57 30 78 104 338 133 465 68 299 108
659 88 790 -23 147 -112 261 -255 329 -248 117 -515 72 -694 -118 -98 -102
-183 -282 -183 -385 0 -53 -10 -9 -25 114 -29 238 -108 527 -194 711 -102 218
-257 374 -420 424 -76 24 -200 26 -280 4z m2225 -2469 c93 -16 192 -40 202
-49 3 -4 -10 -3 -29 1 -65 15 -231 9 -309 -11 -122 -31 -276 -106 -400 -194
-19 -13 -23 -14 -18 -2 77 178 109 245 120 251 53 30 266 31 434 4z m458 -159
c150 -89 266 -209 336 -351 125 -253 101 -509 -63 -691 -30 -33 -73 -72 -95
-88 l-41 -28 -56 45 c-139 114 -291 137 -407 61 -41 -26 -78 -88 -78 -130 0
-25 -2 -26 -32 -20 -18 4 -63 10 -100 13 -38 3 -68 9 -67 12 0 3 33 27 74 54
275 178 567 497 637 696 27 77 27 180 -1 251 -26 70 -96 149 -172 196 -32 20
-59 38 -59 40 0 6 59 -22 124 -60z m-52 -1105 c25 -12 63 -37 84 -55 37 -32
37 -33 18 -44 -47 -25 -172 -52 -240 -52 -128 0 -170 30 -137 98 39 80 167
105 275 53z m183 -182 c26 -50 29 -119 7 -158 -34 -62 -44 -62 -110 1 -32 31
-80 70 -105 86 -49 31 -51 42 -8 42 14 0 62 13 106 29 44 16 83 29 87 30 4 1
15 -13 23 -30z"/>
<path d="M2520 24907 c0 -1 9 -29 19 -62 l19 -60 16 39 c22 54 21 61 -19 73
-19 6 -35 10 -35 10z"/>
<path d="M29253 24483 c-13 -2 -36 -17 -52 -33 -74 -74 -32 -196 72 -207 79
-9 137 42 137 119 -1 80 -75 137 -157 121z"/>
<path d="M63404 24179 c-107 -117 -399 -753 -772 -1689 -50 -123 -94 -226 -99
-227 -5 -2 -189 64 -409 146 -219 82 -422 157 -451 167 l-51 18 -21 -24 c-175
-206 -286 -369 -376 -555 -134 -278 -190 -492 -215 -815 -36 -485 -140 -660
-470 -790 -30 -12 -167 -50 -305 -85 -137 -34 -286 -77 -330 -94 -237 -91
-376 -237 -437 -458 -20 -73 -22 -96 -18 -328 8 -556 6 -695 -14 -770 -25
-100 -88 -222 -147 -288 -70 -79 -149 -133 -350 -238 -94 -50 -199 -109 -233
-131 -212 -143 -385 -344 -518 -603 -77 -150 -159 -340 -147 -343 16 -6 134
-162 190 -252 72 -116 164 -311 244 -515 36 -93 89 -228 117 -300 164 -421
354 -713 654 -1005 260 -254 552 -446 877 -576 130 -53 265 -95 271 -85 3 4
16 36 29 71 78 209 201 391 347 517 159 138 325 234 760 442 492 236 649 326
810 463 287 245 434 576 479 1073 6 61 15 232 21 380 21 540 52 758 142 984
107 271 305 479 593 624 50 24 174 79 277 121 224 90 326 140 434 211 240 160
415 405 589 830 194 473 287 638 457 813 74 77 194 171 261 207 20 11 37 22
37 25 0 3 -78 34 -173 69 -94 35 -323 119 -507 188 -184 69 -384 143 -445 165
-60 22 -120 44 -132 49 l-22 8 33 68 c18 37 75 158 126 268 51 110 141 300
201 423 l108 222 -25 99 c-32 131 -53 311 -51 444 2 101 4 110 26 128 25 20
76 26 86 9 3 -5 26 -10 51 -10 24 0 97 -11 161 -25 105 -22 119 -23 134 -9 11
10 59 20 135 29 198 23 1014 87 1534 120 140 9 268 20 283 24 21 5 -83 34
-420 119 -457 114 -754 187 -1013 247 -80 18 -244 57 -365 85 -843 196 -1691
373 -1850 386 -70 6 -70 6 -101 -27z"/>
<path d="M2773 24068 c6 -16 67 -217 97 -317 11 -40 23 -71 26 -69 18 19 144
184 144 190 0 8 -255 208 -265 208 -4 0 -5 -6 -2 -12z"/>
<path d="M25428 23906 c-85 -23 -143 -78 -174 -163 -40 -112 19 -248 130 -299
158 -73 335 27 353 200 18 172 -142 307 -309 262z"/>
<path d="M36770 23425 c0 -3 -29 -182 -65 -398 -142 -864 -345 -2208 -345
-2283 0 -15 51 -101 129 -217 579 -862 1316 -1632 2149 -2244 86 -63 160 -120
164 -127 16 -24 8 -75 -14 -90 -46 -33 -60 -26 -303 157 -856 643 -1634 1477
-2201 2359 -101 158 -100 156 -127 160 -17 2 -29 23 -58 100 -20 54 -71 157
-112 230 -169 300 -397 767 -397 814 0 28 40 64 72 64 34 0 50 -20 97 -123 22
-48 42 -87 43 -87 3 0 -123 521 -128 528 -4 7 -558 -149 -924 -260 -275 -83
-857 -276 -1090 -361 -52 -19 -144 -53 -205 -75 -330 -121 -723 -277 -1120
-445 -272 -115 -672 -295 -712 -320 -8 -5 5 -43 42 -124 29 -65 102 -228 163
-363 553 -1232 1098 -2367 1469 -3061 96 -180 107 -195 129 -191 52 10 68 -5
159 -140 688 -1022 1697 -1921 2785 -2481 96 -50 183 -97 193 -105 21 -19 23
-75 2 -96 -33 -33 -55 -30 -154 20 -931 470 -1799 1158 -2459 1947 -63 75
-116 137 -117 137 -2 0 -51 -87 -110 -192 -358 -641 -1077 -1882 -1585 -2733
-578 -971 -1357 -2264 -1596 -2652 l-63 -102 87 -78 c48 -43 109 -96 136 -119
l50 -41 -270 -294 c-895 -980 -2005 -2238 -2420 -2744 -799 -975 -1127 -1705
-1192 -2650 -11 -166 -7 -580 7 -755 32 -404 84 -747 191 -1258 71 -344 157
-718 484 -2105 80 -340 146 -620 146 -623 0 -2 801 -4 1780 -4 l1780 0 -6 28
c-50 226 -174 632 -259 847 -5 11 18 -4 51 -35 99 -93 190 -162 404 -307 236
-160 380 -266 570 -422 l135 -111 2773 0 c1524 0 2772 2 2772 6 0 26 -252 578
-386 847 -444 887 -860 1431 -1239 1620 -39 20 -156 61 -260 92 -384 114 -534
166 -663 230 -147 74 -270 167 -340 256 -51 66 -88 127 -81 132 1016 800 1859
1692 2581 2732 318 459 541 838 692 1177 53 120 86 177 174 300 645 906 1286
2039 1787 3158 921 2057 1415 4032 1415 5663 0 1073 -202 1753 -678 2284 l-81
90 -15 114 c-13 90 -46 393 -46 413 0 2 30 14 68 26 77 26 174 74 196 99 9 10
19 32 22 49 5 26 3 33 -12 37 -60 19 -152 72 -196 112 -65 61 -87 94 -112 163
l-21 57 -271 -251 c-701 -649 -755 -696 -855 -746 -100 -51 -159 -63 -288 -58
-94 4 -131 10 -191 33 -179 65 -355 190 -561 396 -170 170 -202 214 -207 289
-5 63 2 74 138 232 181 209 568 766 595 856 8 29 -1 46 -235 402 -377 575
-500 808 -500 947 0 81 25 175 75 278 106 219 310 405 682 622 87 51 165 96
173 101 11 7 -5 13 -55 20 -38 7 -185 30 -325 53 -754 120 -1281 282 -1802
554 -82 42 -108 52 -108 40z m-5586 -12572 c429 -414 861 -674 2421 -1457
1378 -692 2579 -1247 3955 -1828 195 -82 361 -157 368 -166 22 -29 11 -84 -20
-101 -32 -19 -24 -21 -303 97 -1444 610 -2610 1147 -3975 1829 -1630 814
-2054 1068 -2528 1510 -62 58 -119 118 -127 133 -24 47 7 100 58 100 24 0 51
-21 151 -117z m836 -4855 c0 -2 -14 -45 -30 -97 -16 -52 -27 -103 -24 -115 3
-15 -64 -162 -216 -469 -310 -631 -443 -915 -568 -1212 -296 -703 -460 -1322
-502 -1895 -11 -155 -12 -421 -1 -527 4 -40 4 -73 1 -73 -8 1 -258 530 -317
675 -89 214 -115 318 -117 460 0 109 3 133 37 258 109 404 130 500 142 678 9
136 -10 252 -71 441 -67 203 -84 280 -84 379 0 81 19 153 55 206 12 18 68 71
126 119 341 284 1571 1203 1569 1172z"/>
<path d="M40762 23315 l-33 -15 117 -135 c64 -75 129 -142 145 -150 40 -21 72
-18 97 8 90 96 13 251 -149 297 -49 14 -139 12 -177 -5z"/>
<path d="M65055 23050 c3 -5 10 -10 16 -10 5 0 9 5 9 10 0 6 -7 10 -16 10 -8
0 -12 -4 -9 -10z"/>
<path d="M40144 23029 c-79 -23 -128 -113 -105 -191 35 -115 176 -152 260 -66
34 35 46 79 38 140 -11 83 -108 142 -193 117z"/>
<path d="M64890 22999 c0 -33 19 -189 26 -213 5 -14 14 -4 40 43 19 34 31 68
27 74 -6 11 -64 87 -85 112 -4 5 -8 -2 -8 -16z"/>
<path d="M40440 22444 c-179 -48 -371 -123 -555 -218 -142 -73 -325 -188 -370
-234 -36 -35 -33 -85 7 -148 17 -27 53 -86 80 -132 27 -46 56 -86 64 -89 18
-7 44 14 44 35 0 8 -34 70 -75 138 -41 68 -75 129 -75 136 0 20 209 155 365
235 195 100 390 173 584 221 38 9 57 31 48 56 -8 20 -42 20 -117 0z"/>
<path d="M41590 22113 c-57 -52 -68 -143 -25 -207 36 -53 251 -294 260 -292
17 4 43 118 44 191 2 126 -54 278 -114 315 -50 31 -126 28 -165 -7z"/>
<path d="M40959 21650 c-25 -13 -44 -35 -59 -65 -32 -65 -22 -126 29 -176 99
-99 261 -30 261 111 0 118 -124 187 -231 130z"/>
<path d="M39512 21398 c-22 -22 -12 -46 35 -88 166 -146 443 -170 640 -55 45
27 55 53 28 75 -13 10 -26 7 -74 -18 -183 -98 -397 -74 -562 64 -45 38 -50 39
-67 22z"/>
<path d="M22283 21017 c-104 -116 -412 -441 -421 -445 -4 -1 -121 117 -261
263 -140 146 -256 265 -260 265 -3 0 -60 -51 -126 -114 l-120 -113 120 -126
c66 -70 184 -194 263 -276 l142 -149 -212 -204 c-117 -112 -234 -224 -260
-249 l-48 -44 116 -123 116 -122 47 41 c25 23 142 135 260 248 118 113 218
208 223 210 5 1 57 -44 116 -100 107 -104 357 -337 400 -373 l22 -19 73 79
c40 43 92 100 115 125 l41 45 -202 187 c-111 102 -229 213 -261 246 l-59 60
79 84 c43 47 160 171 258 277 l179 191 -24 24 c-64 62 -224 205 -228 204 -4 0
-43 -42 -88 -92z"/>
<path d="M40974 19942 c-6 -4 -20 -33 -30 -64 -10 -32 -21 -58 -26 -58 -4 0
-37 18 -73 40 -72 44 -86 47 -105 25 -20 -24 -7 -39 77 -90 43 -27 80 -50 82
-52 2 -2 -8 -41 -22 -88 -30 -95 -27 -118 12 -113 23 3 29 12 50 78 14 41 26
77 27 79 2 2 44 -22 94 -53 97 -60 125 -68 135 -36 9 29 -3 40 -110 104 -52
32 -95 60 -95 63 0 3 9 37 21 75 16 54 18 73 8 84 -13 15 -28 18 -45 6z"/>
<path d="M157 19212 l-157 -157 0 -460 0 -460 162 -162 163 -163 387 387 c214
214 388 392 388 398 0 13 -762 775 -775 775 -6 0 -81 -71 -168 -158z"/>
<path d="M68228 18885 c-4 -11 -32 -153 -63 -315 -31 -162 -58 -297 -61 -299
-3 -4 -368 -80 -388 -82 -22 -1 33 -19 184 -60 85 -23 160 -47 166 -53 6 -6
39 -132 73 -281 33 -148 67 -297 75 -330 16 -70 18 -67 45 90 12 66 37 210 56
320 19 109 39 202 43 205 4 4 81 26 172 50 91 24 173 46 183 49 10 4 -63 23
-174 46 -105 22 -194 42 -198 45 -5 3 -29 140 -55 305 -26 165 -48 307 -50
315 -1 10 -4 9 -8 -5z"/>
<path d="M5991 17918 c-11 -30 -38 -231 -51 -383 -20 -237 -7 -667 21 -701 15
-18 45 -18 52 0 3 8 2 68 -3 133 -20 251 -8 573 30 823 20 131 17 150 -21 150
-11 0 -23 -10 -28 -22z"/>
<path d="M45505 15039 l-150 -150 45 -41 c163 -147 337 -196 655 -184 247 10
305 -5 349 -90 19 -36 21 -63 27 -329 6 -248 10 -301 28 -368 30 -113 85 -211
161 -287 77 -77 158 -120 286 -151 80 -20 114 -22 324 -20 352 2 380 -11 380
-179 0 -47 -7 -125 -15 -175 -46 -277 -19 -474 86 -640 l31 -48 155 155 156
156 -12 32 c-17 50 -13 169 10 325 26 174 22 327 -11 422 -50 144 -161 266
-294 323 -100 42 -188 53 -426 51 -249 -1 -314 7 -361 47 -58 48 -62 70 -70
377 -7 304 -17 379 -67 489 -27 61 -95 154 -140 191 -52 43 -150 97 -212 117
-58 19 -97 22 -355 27 -270 6 -293 8 -330 28 -22 11 -51 33 -64 47 -14 14 -27
26 -30 26 -4 0 -74 -68 -156 -151z"/>
<path d="M6430 14823 c-620 -65 -2029 -354 -2892 -593 -328 -91 -806 -246
-831 -269 -4 -4 28 -21 70 -39 l78 -31 270 54 c149 29 313 63 365 74 306 68
727 169 1175 281 900 226 1950 491 1964 496 11 3 11 7 1 19 -12 15 -103 18
-200 8z"/>
<path d="M27115 14715 c-4 -22 -32 -163 -61 -314 -29 -150 -55 -276 -58 -278
-3 -3 -90 -23 -193 -44 -103 -22 -192 -40 -197 -42 -5 -2 60 -22 145 -46 85
-23 168 -46 185 -52 l31 -9 53 -238 c30 -130 63 -278 75 -329 11 -51 23 -94
26 -97 3 -3 31 144 63 327 32 183 60 335 63 340 2 4 10 7 17 7 14 0 251 62
320 84 40 12 39 12 -120 45 -87 18 -177 38 -199 44 l-40 12 -42 265 c-23 146
-46 288 -51 315 l-8 50 -9 -40z"/>
<path d="M6315 14644 c-500 -127 -2172 -546 -2312 -579 -62 -15 -113 -31 -113
-35 0 -5 9 -24 19 -42 11 -18 35 -76 53 -128 31 -92 32 -101 33 -255 0 -88 -2
-170 -5 -183 -6 -26 -55 -2 502 -243 l277 -119 43 47 c24 27 68 72 98 101 l55
53 -80 74 c-69 63 -78 76 -69 92 22 35 47 26 127 -47 l77 -71 92 61 c108 72
199 119 321 167 71 27 92 32 103 22 8 -7 14 -22 12 -33 -2 -16 -26 -30 -103
-61 -55 -23 -120 -52 -145 -64 -36 -19 -179 -110 -224 -142 -5 -4 9 -27 32
-51 68 -73 171 -207 249 -324 l73 -112 212 -91 211 -91 54 31 c29 17 53 31 53
32 0 1 -61 123 -135 271 -74 147 -135 278 -135 290 0 24 17 46 36 46 6 0 68
-114 137 -252 69 -139 135 -268 146 -286 l21 -32 117 78 c65 44 156 109 203
146 85 68 104 74 124 44 8 -13 6 -22 -9 -39 -29 -32 -239 -188 -322 -239 -40
-25 -73 -49 -73 -54 0 -5 23 -46 51 -91 l50 -83 219 -95 218 -95 84 19 c45 10
143 32 216 48 73 16 135 31 137 33 3 2 -16 104 -41 226 -37 178 -43 226 -34
237 15 19 34 19 48 2 8 -9 102 -428 102 -452 0 -1 69 13 153 32 177 39 201 39
205 1 4 -31 10 -29 -205 -74 -118 -25 -133 -31 -132 -49 0 -11 12 -78 27 -148
l27 -128 260 -113 c237 -102 447 -202 550 -261 22 -13 270 -144 550 -293 971
-513 936 -495 950 -481 41 45 322 553 481 871 194 387 304 635 491 1105 3 7
-47 31 -126 62 -462 180 -937 300 -1411 356 -74 9 -155 18 -178 21 -46 6 -48
11 -26 68 4 10 1 16 -8 16 -50 0 -296 23 -428 41 -361 47 -660 132 -841 239
-136 81 -199 150 -273 303 -63 131 -46 120 -170 107 -302 -33 -627 79 -837
289 -88 88 -152 186 -138 212 18 35 46 22 90 -43 124 -184 335 -320 584 -375
76 -17 314 -21 352 -6 22 8 21 11 -48 133 -114 201 -306 482 -327 479 -4 0
-173 -43 -377 -95z"/>
<path d="M21310 14228 c-49 -33 -69 -91 -49 -144 28 -74 111 -104 176 -64 102
62 70 214 -48 227 -35 4 -51 0 -79 -19z"/>
<path d="M3655 13985 c-77 -18 -257 -57 -400 -86 -143 -29 -263 -55 -267 -58
-4 -4 88 -48 205 -98 116 -51 326 -142 466 -203 140 -60 256 -108 259 -106 2
3 7 34 12 71 17 136 -12 301 -77 432 -21 42 -42 78 -48 79 -5 1 -73 -13 -150
-31z"/>
<path d="M4921 13116 c-75 -75 -82 -85 -65 -94 11 -5 96 -42 189 -82 94 -40
187 -81 208 -92 22 -11 41 -17 44 -14 14 14 -260 366 -286 366 -4 0 -44 -38
-90 -84z"/>
<path d="M5966 12573 l-30 -16 35 -17 c19 -10 45 -21 57 -25 l24 -7 -24 41
c-12 22 -25 41 -28 41 -3 -1 -18 -8 -34 -17z"/>
<path d="M7045 12284 c-5 -1 -79 -17 -163 -35 -84 -18 -149 -35 -145 -39 15
-14 366 -161 371 -156 6 6 -37 218 -47 227 -3 4 -10 5 -16 3z"/>
<path d="M13215 11146 c-25 -18 -17 -34 64 -144 114 -154 263 -296 430 -411
77 -52 114 -63 125 -35 11 28 7 32 -98 104 -163 111 -330 277 -436 435 -47 69
-54 74 -85 51z"/>
<path d="M52068 11063 c-88 -55 -71 -191 29 -223 97 -33 189 68 149 164 -28
67 -118 96 -178 59z"/>
<path d="M67490 10924 c-55 -55 -100 -105 -100 -111 0 -17 121 -27 131 -11 16
25 79 211 74 216 -3 3 -50 -39 -105 -94z"/>
<path d="M67722 10864 c-13 -58 -22 -107 -20 -109 2 -2 29 -10 61 -18 41 -11
57 -12 57 -4 0 23 -62 237 -69 237 -3 0 -17 -48 -29 -106z"/>
<path d="M20230 7238 l0 -623 -310 310 -310 310 -87 -88 -88 -87 303 -303
c166 -166 302 -305 302 -310 0 -4 -277 -7 -615 -7 l-615 0 0 -120 0 -120 615
0 c338 0 615 -3 615 -7 0 -5 -136 -144 -302 -310 l-303 -303 88 -87 87 -88
303 303 c166 166 305 302 310 302 4 0 7 -277 7 -615 l0 -615 120 0 120 0 0
615 c0 338 3 615 7 615 5 0 144 -136 310 -302 l303 -303 87 88 88 87 -303 303
c-166 166 -302 305 -302 310 0 4 277 7 615 7 l615 0 0 120 0 120 -615 0 c-338
0 -615 3 -615 7 0 5 136 144 302 310 l303 303 -88 87 -87 88 -303 -303 c-166
-166 -305 -302 -310 -302 -4 0 -7 277 -7 615 l0 615 -120 0 -120 0 0 -622z"/>
<path d="M5663 6555 c-66 -29 -92 -117 -53 -180 57 -92 205 -61 225 49 10 51
-19 104 -69 127 -49 22 -61 23 -103 4z"/>
<path d="M54508 5279 c-43 -12 -122 -78 -143 -119 -63 -122 -20 -271 97 -336
69 -38 170 -41 234 -7 178 94 178 354 1 444 -47 25 -136 33 -189 18z"/>
<path d="M44962 4577 l-392 -392 393 -393 392 -392 388 388 c213 213 387 392
387 397 0 6 -174 184 -388 398 l-387 387 -393 -393z"/>
<path d="M63830 4071 l-123 -116 113 -120 c63 -66 182 -189 264 -273 l151
-152 -110 -108 c-60 -59 -177 -171 -259 -249 -137 -130 -147 -143 -135 -161 8
-10 60 -67 115 -125 l102 -106 133 126 c74 69 193 183 264 254 l130 128 161
-152 c88 -84 209 -197 269 -252 l107 -100 32 36 c17 20 68 77 114 126 l82 91
-196 183 c-108 101 -226 211 -262 245 l-66 61 79 86 c44 47 160 171 258 275
97 104 177 194 176 198 -1 5 -55 58 -121 118 l-120 110 -67 -70 c-36 -38 -149
-157 -250 -264 -102 -107 -190 -196 -196 -198 -10 -3 -168 154 -401 400 l-120
126 -124 -117z"/>
<path d="M13540 4039 c-44 -18 -90 -60 -110 -100 -16 -30 -34 -138 -76 -442
-30 -221 -70 -517 -90 -657 -48 -351 -142 -1033 -159 -1160 -8 -58 -44 -321
-80 -585 -36 -264 -84 -610 -105 -769 -22 -159 -40 -297 -40 -308 0 -17 13
-18 220 -18 121 0 220 1 220 3 0 6 48 354 130 952 50 363 111 809 136 990 24
182 62 458 84 615 21 157 55 407 75 555 20 149 39 278 43 288 8 19 -60 70
1227 -928 909 -705 3088 -2397 3138 -2437 l49 -38 360 0 360 0 -748 582 c-721
560 -1646 1279 -2149 1668 -132 103 -393 305 -580 450 -995 773 -1674 1298
-1705 1320 -28 20 -49 25 -105 27 -38 2 -81 -2 -95 -8z"/>
<path d="M1893 2816 c-144 -36 -244 -164 -245 -311 0 -79 15 -132 55 -191 68
-102 174 -151 300 -141 279 24 398 360 198 558 -84 82 -196 114 -308 85z"/>
<path d="M9914 2356 c-30 -30 -34 -40 -34 -86 0 -46 4 -56 34 -86 30 -30 40
-34 85 -34 42 0 56 5 83 29 31 27 33 34 33 91 0 57 -2 64 -33 91 -27 24 -41
29 -83 29 -45 0 -55 -4 -85 -34z"/>
</g>
</svg>
